<?xml version="1.0" encoding="UTF-8"?>
<svg id="Camada_1" data-name="Camada 1" xmlns="http://www.w3.org/2000/svg" xmlns:xlink="http://www.w3.org/1999/xlink" viewBox="0 0 997.33 847.08">
  <defs>
    <style>
      .cls-1 {
        clip-path: url(#clippath);
      }

      .cls-2 {
        fill: none;
      }

      .cls-2, .cls-3, .cls-4, .cls-5 {
        stroke-width: 0px;
      }

      .cls-6 {
        clip-path: url(#clippath-1);
      }

      .cls-7 {
        clip-path: url(#clippath-2);
      }

      .cls-3 {
        fill: #f8becb;
      }

      .cls-4 {
        fill: #9bd2e0;
      }

      .cls-5 {
        fill: #f59cbb;
      }
    </style>
    <clipPath id="clippath">
      <rect class="cls-2" x="574.67" y=".05" width="422.67" height="536"/>
    </clipPath>
    <clipPath id="clippath-1">
      <rect class="cls-2" y=".05" width="422.67" height="536"/>
    </clipPath>
    <clipPath id="clippath-2">
      <rect class="cls-2" x="385.33" y="298.72" width="250.67" height="548.33"/>
    </clipPath>
  </defs>
  <g class="cls-1">
    <path class="cls-5" d="m575.21,267.37C575.21,119.7,669.6,0,786.04,0s210.83,119.7,210.83,267.37-94.39,267.37-210.83,267.37-210.82-119.71-210.82-267.37"/>
  </g>
  <path class="cls-3" d="m643.87,300.14l129.6,89.91,6.28-93.51-49.71-58.24,51.55,30.72,3.43-51.19h22.51l6.89,102.65,78.26-53.1-75.13,99.81,26.66,397.77h-95.85l21.68-323.35-126.15-141.46"/>
  <g class="cls-6">
    <path class="cls-5" d="m422.06,267.37C422.06,119.7,327.67,0,211.23,0S.42,119.7.42,267.37s94.38,267.37,210.82,267.37,210.82-119.71,210.82-267.37"/>
  </g>
  <path class="cls-3" d="m353.4,300.14l-129.6,89.91-6.27-93.51,49.7-58.24-51.55,30.72-3.43-51.19h-22.5l-6.88,102.65-78.26-53.1,75.12,99.81-26.66,397.77h95.86l-21.68-323.35,126.14-141.46"/>
  <path class="cls-4" d="m703.95,349.52c0-147.67-94.39-267.37-210.82-267.37s-210.83,119.7-210.83,267.37,94.39,267.36,210.83,267.36,210.82-119.71,210.82-267.36"/>
  <g class="cls-7">
    <path class="cls-3" d="m635.29,382.27l-129.6,89.92-6.27-93.51,49.7-58.24-51.55,30.72-3.43-51.19h-22.51l-6.88,102.65-78.24-53.1,75.12,99.81-26.66,397.76h95.85l-21.67-323.34,126.14-141.47"/>
  </g>
</svg>