<svg xmlns="http://www.w3.org/2000/svg" xmlns:xlink="http://www.w3.org/1999/xlink" width="1920" zoomAndPan="magnify" viewBox="0 0 1440 809.999993" height="1080" preserveAspectRatio="xMidYMid meet" version="1.0"><defs><clipPath id="9a2dedf831"><path d="M 431.835938 373 L 966.585938 373 L 966.585938 727 L 431.835938 727 Z M 431.835938 373 " clip-rule="nonzero"/></clipPath><clipPath id="3333f31b08"><path d="M 178.734375 616 L 309.984375 616 L 309.984375 728.828125 L 178.734375 728.828125 Z M 178.734375 616 " clip-rule="nonzero"/></clipPath><clipPath id="1e109a9823"><path d="M 178.734375 647 L 309.984375 647 L 309.984375 698 L 178.734375 698 Z M 178.734375 647 " clip-rule="nonzero"/></clipPath><clipPath id="16aaf497f7"><path d="M 1116.792969 81 L 1233 81 L 1233 238.5 L 1116.792969 238.5 Z M 1116.792969 81 " clip-rule="nonzero"/></clipPath><clipPath id="62b43ffaef"><path d="M 278.652344 81 L 420.402344 81 L 420.402344 222.75 L 278.652344 222.75 Z M 278.652344 81 " clip-rule="nonzero"/></clipPath></defs><rect x="-144" width="1728" fill="#ffffff" y="-80.999999" height="971.999992" fill-opacity="1"/><rect x="-144" width="1728" fill="#ffffff" y="-80.999999" height="971.999992" fill-opacity="1"/><path fill="#f8becb" d="M 765.273438 728.941406 C 767.707031 696.878906 801.117188 683.546875 801.117188 664.542969 C 801.117188 664.542969 847.597656 647.558594 853.660156 663.570312 C 859.738281 679.597656 872.652344 699.960938 872.042969 728.941406 Z M 747.628906 728.914062 C 753.796875 703.226562 738.832031 690.269531 741.980469 666.902344 C 745.140625 643.53125 689.269531 667.691406 689.269531 667.691406 C 685.796875 679.117188 677.027344 688.171875 665.707031 691.980469 L 646.195312 698.546875 C 633.679688 702.757812 624.988281 714.417969 625.015625 727.632812 C 625.015625 727.785156 625.015625 727.941406 625.015625 728.097656 Z M 747.628906 728.914062 " fill-opacity="1" fill-rule="nonzero"/><path fill="#f59cbb" d="M 712.160156 119.675781 C 712.160156 98.355469 729.441406 81.074219 750.765625 81.074219 C 764.289062 81.074219 776.195312 88.03125 783.085938 98.574219 C 790.574219 112.835938 795.070312 125.261719 797.722656 134.511719 C 800.394531 143.796875 794.769531 153.4375 785.367188 155.625 L 733.960938 167.335938 C 724.390625 169.511719 715.125 162.632812 714.453125 152.839844 Z M 747.785156 665.332031 L 774.664062 512.808594 L 797.269531 665.332031 L 862.148438 665.332031 L 847.261719 423.292969 C 853.390625 407.019531 854.113281 389.015625 848.945312 372.03125 C 842.871094 352.105469 836.417969 331.171875 835.394531 328.789062 L 711.125 337.871094 L 682.933594 665.332031 Z M 747.785156 665.332031 " fill-opacity="1" fill-rule="nonzero"/><path fill="#9bd2df" d="M 755.855469 159.472656 L 760.296875 165.742188 L 782.035156 156.183594 C 782.800781 156.054688 793.683594 153.917969 805.511719 156.039062 C 824.449219 159.460938 840.019531 172.921875 846.148438 191.171875 L 856.886719 223.15625 C 862.378906 239.507812 857.703125 257.265625 845.566406 268.808594 L 842.726562 270.46875 L 853.144531 358.3125 L 714.917969 358.3125 L 682.261719 225.191406 L 689.050781 214.011719 C 702.417969 191.988281 722.757812 175.058594 746.839844 165.898438 L 756.488281 162.234375 " fill-opacity="1" fill-rule="nonzero"/><path fill="#f8becb" d="M 765.015625 185.785156 L 753.613281 171.132812 L 753.136719 166.417969 L 748.808594 164.953125 C 746.140625 165.457031 743.457031 165.382812 740.933594 164.785156 C 740.21875 164.617188 740.179688 165.601562 739.492188 165.355469 C 739.144531 165.238281 738.148438 163.917969 737.808594 163.773438 C 733.714844 162.050781 730.230469 158.929688 728.121094 154.746094 C 725.621094 149.808594 719.855469 132.761719 716.410156 122.253906 C 714.816406 117.421875 717.132812 112.175781 721.773438 110.078125 C 719.246094 111.773438 718.183594 114.976562 719.207031 117.851562 L 723.820312 130.84375 C 724.390625 130.765625 738.847656 125.507812 750.363281 121.308594 L 746.191406 108.433594 C 745.0625 105.296875 746.695312 101.851562 749.832031 100.738281 L 753.679688 111.917969 C 755.195312 115.90625 759.652344 117.929688 763.652344 116.464844 C 764.46875 114.546875 766.375 113.1875 768.589844 113.1875 C 770.972656 113.1875 772.992188 114.742188 773.695312 116.90625 C 775.054688 121.324219 773.679688 125.933594 770.507812 128.902344 L 770.507812 146.597656 C 770.507812 152.464844 775.636719 157.101562 781.453125 156.324219 C 781.789062 156.273438 782.011719 156.234375 782.050781 156.183594 Z M 765.015625 185.785156 " fill-opacity="1" fill-rule="nonzero"/><path fill="#f8becb" d="M 570.4375 373.261719 L 570.4375 373.25 C 568.339844 373.222656 566.226562 373.066406 564.101562 372.796875 C 554.710938 371.566406 545.773438 367.71875 538.414062 361.746094 C 514.292969 342.171875 512.6875 307.246094 532.609375 285.546875 C 534.113281 283.914062 536.703125 283.953125 538.207031 285.574219 C 539.582031 287.050781 539.554688 289.316406 538.195312 290.804688 C 522.648438 307.816406 522.546875 334.269531 538.519531 351.40625 C 546.5625 360.035156 557.445312 365.035156 569.207031 365.554688 L 568.972656 364.050781 C 560.539062 310.652344 595.839844 259.535156 649.046875 249.933594 C 650.132812 249.742188 651.222656 249.558594 652.308594 249.390625 L 667.960938 186.769531 C 668.828125 183.777344 672.933594 183.453125 674.269531 186.261719 L 683.90625 206.5 C 683.90625 206.5 700.929688 201.121094 717.367188 206.5 L 727.003906 186.261719 C 728.339844 183.453125 732.445312 183.777344 733.316406 186.769531 L 748.964844 240.554688 C 764.484375 288.136719 768.628906 353.144531 768.628906 353.144531 L 778.421875 356.640625 C 781.375 357.691406 783.511719 360.269531 784.003906 363.363281 C 784.835938 368.570312 780.820312 373.289062 775.53125 373.289062 L 570.4375 373.289062 Z M 765.816406 446.46875 L 763.898438 446.753906 L 783.175781 576.800781 L 785.09375 576.515625 Z M 765.816406 446.46875 " fill-opacity="1" fill-rule="nonzero"/><path fill="#f8f5b3" d="M 696.109375 373.753906 L 685.875 381.773438 L 655.546875 373.261719 L 648.4375 353.90625 L 689.695312 356.304688 Z M 696.109375 373.753906 " fill-opacity="1" fill-rule="nonzero"/><g clip-path="url(#9a2dedf831)"><path fill="#9bd2df" d="M 966.726562 385.335938 L 966.726562 389.777344 C 966.726562 396.449219 961.328125 401.851562 954.65625 401.851562 L 923.875 401.851562 L 923.875 712.421875 C 923.875 720.3125 917.476562 726.722656 909.574219 726.722656 C 901.683594 726.722656 895.269531 720.324219 895.269531 712.421875 L 895.269531 401.851562 L 503.28125 401.851562 L 503.28125 712.421875 C 503.28125 720.3125 496.882812 726.722656 488.980469 726.722656 C 481.089844 726.722656 474.679688 720.324219 474.679688 712.421875 L 474.679688 401.851562 L 443.910156 401.851562 C 437.238281 401.851562 431.835938 396.449219 431.835938 389.777344 L 431.835938 385.335938 C 431.835938 378.664062 437.238281 373.261719 443.910156 373.261719 L 954.65625 373.261719 C 961.328125 373.261719 966.726562 378.664062 966.726562 385.335938 Z M 966.726562 385.335938 " fill-opacity="1" fill-rule="nonzero"/></g><path fill="#f8f5b3" d="M 735.128906 273.667969 C 735.128906 280.132812 729.867188 285.390625 723.40625 285.390625 C 716.941406 285.390625 711.679688 280.132812 711.679688 273.667969 C 711.679688 267.203125 716.941406 261.945312 723.40625 261.945312 C 729.867188 261.945312 735.128906 267.203125 735.128906 273.667969 Z M 774.109375 314.914062 L 766.839844 317.195312 C 764.378906 317.972656 761.867188 318.347656 759.367188 318.347656 C 755.285156 318.347656 751.242188 317.324219 747.539062 315.316406 C 741.578125 312.078125 737.292969 306.6875 735.464844 300.144531 L 732.523438 289.550781 C 729.867188 291.027344 726.8125 291.867188 723.558594 291.867188 C 713.3125 291.867188 705.023438 283.566406 705.023438 273.332031 C 705.023438 263.082031 713.324219 254.792969 723.558594 254.792969 C 733.808594 254.792969 742.097656 263.097656 742.097656 273.332031 C 742.097656 279.457031 739.117188 284.875 734.546875 288.242188 L 737.679688 299.539062 C 739.324219 305.46875 743.210938 310.367188 748.625 313.308594 C 754.042969 316.25 760.261719 316.859375 766.140625 315.003906 L 773.410156 312.726562 C 784.367188 309.28125 790.976562 298.191406 788.785156 286.90625 L 785.726562 271.191406 C 784.613281 277.386719 780.429688 282.851562 774.277344 285.300781 L 751.917969 294.199219 L 751.0625 292.0625 L 773.421875 283.164062 C 781.027344 280.132812 785.25 271.878906 783.242188 263.9375 L 764.859375 188.800781 C 763.976562 188.933594 763.082031 188.996094 762.203125 188.996094 C 755.363281 188.996094 748.964844 185.238281 745.671875 178.90625 L 742.628906 173.050781 L 737.808594 163.773438 C 738.820312 164.203125 739.855469 164.539062 740.933594 164.785156 L 744.441406 171.546875 C 747.875 172.285156 766.039062 173.21875 778.472656 159.941406 C 778.460938 158.722656 778.433594 157.492188 778.421875 156.261719 C 778.28125 146.234375 778.125 135.859375 777.671875 128.550781 C 777.515625 125.960938 775.832031 123.824219 773.523438 122.941406 C 773.1875 123.253906 772.746094 123.433594 772.253906 123.382812 L 769.238281 123.03125 C 768.355469 122.929688 767.734375 122.140625 767.839844 121.257812 L 767.941406 120.3125 C 768.046875 119.429688 768.835938 118.808594 769.714844 118.914062 L 772.734375 119.261719 C 773.5 119.355469 774.042969 119.976562 774.109375 120.699219 C 777.347656 121.828125 779.742188 124.808594 779.964844 128.410156 C 780.417969 135.765625 780.574219 146.167969 780.714844 156.222656 C 780.78125 160.898438 780.84375 165.535156 780.949219 169.863281 C 781.140625 178.515625 775.457031 186.082031 767.101562 188.324219 L 785.457031 263.355469 C 785.714844 264.40625 785.882812 265.453125 785.960938 266.515625 L 787.101562 266.296875 L 791.027344 286.453125 C 793.460938 298.890625 786.183594 311.117188 774.109375 314.914062 Z M 766.375 186.160156 C 773.769531 184.242188 778.824219 177.570312 778.640625 169.929688 C 778.589844 167.75 778.550781 165.484375 778.511719 163.164062 C 768.445312 172.714844 756.023438 174.175781 749.351562 174.175781 C 747.785156 174.175781 746.542969 174.097656 745.710938 174.023438 L 747.695312 177.84375 C 751.257812 184.671875 758.9375 188.089844 766.375 186.160156 Z M 736.421875 273.667969 C 736.421875 266.492188 730.582031 260.648438 723.40625 260.648438 C 716.226562 260.648438 710.386719 266.492188 710.386719 273.667969 C 710.386719 280.84375 716.226562 286.6875 723.40625 286.6875 C 730.582031 286.6875 736.421875 280.84375 736.421875 273.667969 Z M 736.421875 273.667969 " fill-opacity="1" fill-rule="nonzero"/><path fill="#f8becb" d="M 647.246094 263.796875 C 645.390625 264.46875 643.460938 263.9375 642.167969 262.667969 C 642.375 264.882812 641.078125 266.96875 638.96875 267.734375 C 637.074219 268.421875 635.09375 267.851562 633.8125 266.53125 C 633.863281 266.957031 633.902344 267.382812 633.953125 267.785156 C 634.226562 269.910156 633.007812 271.929688 630.988281 272.65625 C 629.457031 273.214844 627.851562 272.878906 626.671875 271.957031 C 626.441406 273.1875 625.585938 274.25 624.355469 274.691406 C 622.28125 275.441406 620.027344 274.1875 619.574219 272.023438 C 618.71875 267.980469 618.460938 263.691406 618.394531 260.894531 C 618.34375 259.054688 619.40625 257.359375 621.078125 256.566406 C 621.855469 256.203125 622.710938 256.074219 623.523438 256.152344 C 623.511719 255.867188 623.5 255.570312 623.5 255.296875 C 623.433594 252.980469 624.769531 250.839844 626.867188 249.855469 C 628.164062 249.25 629.601562 249.15625 630.921875 249.519531 C 630.921875 249.363281 630.910156 249.210938 630.910156 249.066406 C 630.84375 246.566406 632.28125 244.273438 634.535156 243.210938 C 636.128906 242.460938 637.929688 242.433594 639.5 243.042969 C 640.03125 241.410156 641.207031 240.023438 642.800781 239.273438 C 645.261719 238.121094 648.191406 238.652344 650.070312 240.621094 L 653.878906 244.597656 L 652.402344 249.429688 L 650.394531 249.546875 C 649.746094 251.773438 650.054688 255.621094 650.433594 258.535156 C 650.730469 260.828125 649.410156 263.019531 647.246094 263.796875 Z M 832.664062 276.335938 C 832.664062 276.335938 758.433594 307.53125 731.320312 301.46875 C 725.203125 300.09375 719.492188 296.3125 715.957031 293.890625 C 714.441406 292.851562 713.882812 290.976562 714.425781 289.316406 C 712.171875 287.789062 710.179688 286.246094 708.6875 284.925781 C 707.457031 283.835938 707.054688 282.164062 707.523438 280.6875 C 705.578125 279.019531 703.894531 277.386719 702.625 275.984375 C 701.136719 274.339844 701.238281 271.816406 702.871094 270.324219 C 703.015625 270.195312 703.167969 270.078125 703.335938 269.976562 C 703.144531 269.78125 702.949219 269.574219 702.78125 269.378906 C 701.238281 267.683594 701.40625 265.015625 703.222656 263.550781 C 704.699219 262.34375 706.886719 262.449219 708.378906 263.640625 C 720.125 273.070312 740.828125 269.601562 740.828125 269.601562 C 737.964844 261.464844 728.585938 255.425781 728.585938 255.425781 L 732.925781 255.480469 C 739.507812 255.558594 745.816406 258.160156 750.542969 262.746094 C 751.398438 263.574219 752.019531 264.171875 752.152344 264.277344 L 817.777344 238.703125 Z M 832.664062 276.335938 " fill-opacity="1" fill-rule="nonzero"/><path fill="#f59cbb" d="M 757.382812 162.816406 L 753.601562 171.132812 L 748.796875 164.953125 C 748.949219 164.925781 749.105469 164.886719 749.261719 164.863281 C 751.828125 164.320312 754.171875 163.269531 756.21875 161.855469 C 756.890625 161.390625 757.722656 162.089844 757.382812 162.816406 Z M 845.253906 268.253906 L 832.324219 275.777344 L 832.972656 276.894531 L 845.902344 269.367188 Z M 804.070312 204.660156 L 817.15625 238.921875 L 818.359375 238.457031 L 805.277344 204.191406 Z M 749.804688 356.007812 L 740.347656 352.625 C 739.714844 349.503906 736.007812 331.808594 729.816406 309.511719 L 728.574219 309.863281 C 735.414062 334.527344 739.132812 353.066406 739.15625 353.246094 L 739.222656 353.609375 L 749.351562 357.222656 C 752.085938 358.195312 754.054688 360.578125 754.507812 363.441406 C 754.871094 365.734375 754.222656 368.066406 752.707031 369.839844 C 751.203125 371.617188 749.003906 372.625 746.671875 372.625 L 746.671875 373.921875 C 749.378906 373.921875 751.929688 372.742188 753.691406 370.683594 C 755.453125 368.625 756.203125 365.917969 755.777344 363.246094 C 755.273438 359.90625 752.980469 357.132812 749.804688 356.007812 Z M 684.527344 247.875 C 686.71875 247.875 688.90625 247.148438 690.707031 245.671875 L 699.890625 238.144531 L 709.089844 245.671875 C 710.890625 247.148438 713.078125 247.875 715.269531 247.875 C 717.886719 247.875 720.488281 246.839844 722.40625 244.804688 L 724.039062 243.070312 L 723.09375 242.1875 L 721.460938 243.925781 C 718.417969 247.164062 713.351562 247.5 709.90625 244.675781 L 701.1875 237.523438 C 701.394531 237.367188 701.589844 237.1875 701.746094 236.953125 L 704.230469 233.183594 C 705.242188 231.644531 704.140625 229.597656 702.300781 229.597656 L 697.496094 229.597656 C 695.683594 229.597656 694.582031 231.578125 695.527344 233.121094 L 697.84375 236.890625 C 698.027344 237.1875 698.273438 237.40625 698.53125 237.589844 L 689.890625 244.664062 C 686.457031 247.472656 681.378906 247.148438 678.335938 243.910156 L 676.703125 242.175781 L 675.757812 243.054688 L 677.390625 244.792969 C 679.308594 246.839844 681.910156 247.875 684.527344 247.875 Z M 643.667969 264.390625 L 644.121094 263.175781 C 642.738281 262.667969 641.726562 261.503906 641.429688 260.050781 C 640.289062 254.675781 639.9375 248.964844 639.835938 245.117188 C 639.808594 243.976562 640.121094 242.863281 640.753906 241.890625 L 639.667969 241.175781 C 638.890625 242.355469 638.5 243.730469 638.539062 245.140625 C 638.644531 249.039062 639.007812 254.84375 640.160156 260.3125 C 640.546875 262.203125 641.867188 263.730469 643.667969 264.390625 Z M 634.601562 267.96875 L 635.234375 266.839844 C 634.160156 266.246094 633.398438 265.207031 633.136719 264.003906 C 631.996094 258.628906 631.648438 252.914062 631.542969 249.066406 L 630.25 249.105469 C 630.351562 253.003906 630.703125 258.796875 631.867188 264.277344 C 632.203125 265.828125 633.203125 267.191406 634.601562 267.96875 Z M 627.890625 271.945312 C 626.738281 271.4375 625.882812 270.402344 625.625 269.160156 C 624.574219 264.171875 624.238281 258.859375 624.148438 255.285156 L 622.851562 255.324219 C 622.941406 258.949219 623.277344 264.339844 624.355469 269.429688 C 624.703125 271.078125 625.832031 272.460938 627.371094 273.136719 Z M 703.234375 268.9375 C 701.992188 267.566406 702.082031 265.441406 703.441406 264.183594 L 702.5625 263.226562 C 700.683594 264.960938 700.550781 267.914062 702.277344 269.808594 C 702.300781 269.832031 702.339844 269.871094 702.367188 269.898438 C 700.539062 271.632812 700.421875 274.546875 702.121094 276.425781 C 703.390625 277.824219 705.023438 279.226562 706.863281 280.570312 C 706.332031 282.308594 706.863281 284.199219 708.234375 285.417969 C 712.523438 289.210938 719.234375 292.515625 724.117188 294.628906 L 724.636719 293.4375 C 717.859375 290.507812 712.339844 287.308594 709.089844 284.433594 C 708.207031 283.65625 707.808594 282.503906 707.988281 281.363281 C 713.015625 284.835938 719.335938 287.929688 724.621094 289.898438 L 725.074219 288.683594 C 717.496094 285.859375 707.753906 280.703125 703.066406 275.53125 C 701.835938 274.171875 701.914062 272.074219 703.246094 270.816406 C 708.390625 275.933594 717.898438 281.972656 725.605469 283.539062 L 725.867188 282.269531 C 717.910156 280.664062 707.921875 274.09375 703.234375 268.9375 Z M 709.761719 362.082031 C 710.773438 364.816406 710.398438 367.757812 708.738281 370.140625 C 707.070312 372.535156 704.453125 373.894531 701.539062 373.894531 L 701.539062 372.601562 C 704.023438 372.601562 706.253906 371.433594 707.675781 369.386719 C 709.101562 367.355469 709.414062 364.839844 708.558594 362.523438 C 707.523438 359.738281 704.945312 357.820312 701.976562 357.652344 L 683.867188 356.601562 L 681.132812 364.050781 L 684.425781 373.027344 L 683.207031 373.46875 L 680.433594 365.929688 L 677.765625 373.210938 L 676.546875 372.769531 L 682.507812 356.539062 L 671.300781 355.890625 L 664.835938 373.496094 L 663.621094 373.054688 L 665.316406 368.441406 L 660.484375 355.28125 L 646.246094 354.453125 L 646.324219 353.15625 L 660.535156 353.984375 L 661.289062 353.714844 L 661.402344 354.035156 L 692.933594 355.863281 L 691.511719 350.734375 C 683.269531 319.683594 659.34375 295.46875 627.527344 285.960938 C 627.269531 285.882812 627.140625 285.832031 627.035156 285.742188 L 627.449219 285.25 L 627.761719 284.679688 C 627.789062 284.691406 627.839844 284.703125 627.890625 284.71875 C 660.148438 294.355469 684.398438 318.917969 692.753906 350.398438 L 694.296875 355.941406 L 702.042969 356.394531 C 705.527344 356.574219 708.558594 358.816406 709.761719 362.082031 Z M 669.953125 355.8125 L 661.894531 355.34375 L 666.015625 366.550781 Z M 669.953125 355.8125 " fill-opacity="1" fill-rule="nonzero"/><path fill="#f8becb" d="M 241.726562 541.042969 C 247.222656 524.949219 254.878906 517.863281 261.605469 516 C 267.671875 514.351562 273.015625 516.753906 275.898438 520.777344 C 278.839844 524.890625 279.289062 530.652344 275.417969 535.636719 C 271.242188 541.042969 261.695312 545.457031 244.21875 544.886719 L 244.21875 544.917969 C 242.660156 544.855469 241.457031 543.566406 241.519531 542.035156 C 241.519531 541.671875 241.609375 541.34375 241.726562 541.042969 Z M 241.726562 541.042969 " fill-opacity="1" fill-rule="nonzero"/><path fill="#f8becb" d="M 226.984375 516 C 233.710938 517.863281 241.367188 524.949219 246.863281 541.042969 C 246.984375 541.34375 247.074219 541.671875 247.074219 542.035156 C 247.132812 543.566406 245.933594 544.855469 244.402344 544.917969 L 244.371094 544.886719 C 226.894531 545.457031 217.347656 541.042969 213.175781 535.636719 C 209.332031 530.652344 209.75 524.890625 212.695312 520.777344 C 215.574219 516.753906 220.921875 514.351562 226.984375 516 Z M 226.984375 516 " fill-opacity="1" fill-rule="nonzero"/><path fill="#f8becb" d="M 241.726562 577.855469 C 247.222656 561.761719 254.878906 554.675781 261.605469 552.8125 C 267.671875 551.160156 273.015625 553.5625 275.898438 557.585938 C 278.839844 561.699219 279.289062 567.464844 275.417969 572.449219 C 271.242188 577.855469 261.695312 582.269531 244.21875 581.726562 C 242.660156 581.667969 241.457031 580.375 241.519531 578.84375 C 241.519531 578.515625 241.609375 578.152344 241.726562 577.855469 Z M 241.726562 577.855469 " fill-opacity="1" fill-rule="nonzero"/><path fill="#f8becb" d="M 226.984375 552.8125 C 233.710938 554.675781 241.367188 561.761719 246.863281 577.855469 C 246.984375 578.152344 247.074219 578.515625 247.074219 578.84375 C 247.132812 580.375 245.933594 581.667969 244.402344 581.726562 L 244.371094 581.726562 C 226.894531 582.269531 217.347656 577.855469 213.175781 572.449219 C 209.332031 567.464844 209.75 561.699219 212.695312 557.585938 C 215.574219 553.5625 220.921875 551.160156 226.984375 552.8125 Z M 226.984375 552.8125 " fill-opacity="1" fill-rule="nonzero"/><path fill="#f8becb" d="M 241.726562 614.695312 C 247.222656 598.570312 254.878906 591.484375 261.605469 589.652344 C 267.671875 588.003906 273.015625 590.375 275.898438 594.429688 C 278.839844 598.511719 279.289062 604.277344 275.417969 609.261719 C 271.242188 614.664062 261.695312 619.109375 244.21875 618.539062 C 242.660156 618.507812 241.457031 617.21875 241.519531 615.6875 C 241.519531 615.324219 241.609375 614.996094 241.726562 614.695312 Z M 241.726562 614.695312 " fill-opacity="1" fill-rule="nonzero"/><path fill="#f8becb" d="M 226.984375 589.652344 C 233.710938 591.484375 241.367188 598.570312 246.863281 614.695312 C 246.984375 614.996094 247.074219 615.324219 247.074219 615.6875 C 247.132812 617.21875 245.933594 618.507812 244.402344 618.539062 L 244.371094 618.539062 C 226.894531 619.109375 217.347656 614.664062 213.175781 609.261719 C 209.332031 604.277344 209.75 598.511719 212.695312 594.429688 C 215.574219 590.375 220.921875 588.003906 226.984375 589.652344 Z M 226.984375 589.652344 " fill-opacity="1" fill-rule="nonzero"/><path fill="#f59cbb" d="M 244.308594 621.390625 C 242.777344 621.390625 241.519531 620.128906 241.519531 618.597656 L 241.519531 527.382812 C 241.519531 525.851562 242.777344 524.589844 244.308594 524.589844 C 245.839844 524.589844 247.074219 525.851562 247.074219 527.382812 L 247.074219 618.597656 C 247.074219 620.128906 245.839844 621.390625 244.308594 621.390625 Z M 244.308594 621.390625 " fill-opacity="1" fill-rule="evenodd"/><g clip-path="url(#3333f31b08)"><path fill="#9bd2df" d="M 253.589844 728.972656 L 235.003906 728.972656 C 203.957031 728.972656 178.734375 703.75 178.734375 672.703125 L 178.734375 618.929688 C 178.734375 617.578125 179.847656 616.464844 181.226562 616.464844 L 307.363281 616.464844 C 308.746094 616.464844 309.855469 617.578125 309.855469 618.929688 L 309.855469 672.703125 C 309.855469 703.75 284.632812 728.972656 253.589844 728.972656 Z M 253.589844 728.972656 " fill-opacity="1" fill-rule="evenodd"/></g><g clip-path="url(#1e109a9823)"><path fill="#f8becb" d="M 303.972656 697.746094 L 184.621094 697.746094 C 180.867188 690.210938 178.734375 681.710938 178.734375 672.703125 L 178.734375 647.753906 L 309.855469 647.753906 L 309.855469 672.703125 C 309.855469 681.710938 307.722656 690.210938 303.972656 697.746094 Z M 303.972656 697.746094 " fill-opacity="1" fill-rule="evenodd"/></g><path fill="#9bd2df" d="M 1203.863281 137.066406 L 1145.804688 137.066406 C 1144.363281 137.066406 1143.199219 138.230469 1143.199219 139.671875 C 1143.199219 141.113281 1144.363281 142.28125 1145.804688 142.28125 L 1203.863281 142.28125 C 1205.304688 142.28125 1206.472656 141.113281 1206.472656 139.671875 C 1206.472656 138.230469 1205.304688 137.066406 1203.863281 137.066406 " fill-opacity="1" fill-rule="nonzero"/><path fill="#9bd2df" d="M 1203.863281 160.851562 L 1145.804688 160.851562 C 1144.363281 160.851562 1143.199219 162.015625 1143.199219 163.457031 C 1143.199219 164.898438 1144.363281 166.066406 1145.804688 166.066406 L 1203.863281 166.066406 C 1205.304688 166.066406 1206.472656 164.898438 1206.472656 163.457031 C 1206.472656 162.015625 1205.304688 160.851562 1203.863281 160.851562 " fill-opacity="1" fill-rule="nonzero"/><path fill="#9bd2df" d="M 1203.863281 184.636719 L 1145.804688 184.636719 C 1144.363281 184.636719 1143.199219 185.804688 1143.199219 187.242188 C 1143.199219 188.683594 1144.363281 189.851562 1145.804688 189.851562 L 1203.863281 189.851562 C 1205.304688 189.851562 1206.472656 188.683594 1206.472656 187.242188 C 1206.472656 185.804688 1205.304688 184.636719 1203.863281 184.636719 " fill-opacity="1" fill-rule="nonzero"/><g clip-path="url(#16aaf497f7)"><path fill="#9bd2df" d="M 1222.457031 228.234375 L 1127.210938 228.234375 L 1127.210938 115.199219 L 1143.605469 115.199219 L 1143.605469 115.464844 C 1143.605469 117.625 1145.355469 119.375 1147.515625 119.375 L 1202.152344 119.375 C 1204.3125 119.375 1206.066406 117.625 1206.066406 115.464844 L 1206.066406 115.199219 L 1222.457031 115.199219 Z M 1175.640625 87.289062 C 1179.207031 87.289062 1182.109375 90.191406 1182.109375 93.757812 C 1182.109375 97.324219 1179.207031 100.226562 1175.640625 100.226562 C 1172.070312 100.226562 1169.167969 97.324219 1169.167969 93.757812 C 1169.167969 90.191406 1172.070312 87.289062 1175.640625 87.289062 Z M 1206.066406 104.769531 L 1206.066406 97.863281 C 1206.066406 95.703125 1204.3125 93.953125 1202.152344 93.953125 L 1188.378906 93.953125 C 1188.378906 93.886719 1188.386719 93.824219 1188.386719 93.757812 C 1188.386719 86.730469 1182.667969 81.011719 1175.640625 81.011719 C 1168.609375 81.011719 1162.890625 86.730469 1162.890625 93.757812 C 1162.890625 93.824219 1162.898438 93.886719 1162.898438 93.953125 L 1147.515625 93.953125 C 1145.355469 93.953125 1143.605469 95.703125 1143.605469 97.863281 L 1143.605469 104.769531 L 1116.78125 104.769531 L 1116.78125 238.664062 L 1232.886719 238.664062 L 1232.886719 104.769531 L 1206.066406 104.769531 " fill-opacity="1" fill-rule="nonzero"/></g><g clip-path="url(#62b43ffaef)"><path fill="#9bd2e0" d="M 349.703125 90.238281 C 315.664062 90.238281 287.976562 117.925781 287.976562 151.964844 C 287.976562 186 315.664062 213.691406 349.703125 213.691406 C 383.738281 213.691406 411.425781 186 411.425781 151.964844 C 411.425781 117.925781 383.738281 90.238281 349.703125 90.238281 Z M 349.703125 222.9375 C 340.121094 222.9375 330.828125 221.0625 322.074219 217.359375 C 313.621094 213.78125 306.03125 208.664062 299.515625 202.152344 C 293 195.632812 287.882812 188.042969 284.304688 179.589844 C 280.605469 170.835938 278.726562 161.542969 278.726562 151.964844 C 278.726562 142.382812 280.605469 133.089844 284.304688 124.335938 C 287.882812 115.882812 293 108.292969 299.515625 101.773438 C 306.03125 95.261719 313.621094 90.144531 322.074219 86.570312 C 330.828125 82.867188 340.121094 80.988281 349.703125 80.988281 C 359.28125 80.988281 368.574219 82.867188 377.328125 86.570312 C 385.785156 90.144531 393.371094 95.261719 399.890625 101.773438 C 406.40625 108.292969 411.523438 115.882812 415.097656 124.335938 C 418.796875 133.089844 420.675781 142.382812 420.675781 151.964844 C 420.675781 161.542969 418.796875 170.835938 415.097656 179.589844 C 411.523438 188.042969 406.40625 195.632812 399.890625 202.152344 C 393.371094 208.664062 385.785156 213.78125 377.328125 217.359375 C 368.574219 221.0625 359.28125 222.9375 349.703125 222.9375 " fill-opacity="1" fill-rule="nonzero"/></g><path fill="#9bd2e0" d="M 351.496094 107.699219 L 347.910156 107.699219 C 347.621094 107.699219 347.382812 107.460938 347.382812 107.171875 L 347.382812 96.15625 C 347.382812 95.867188 347.621094 95.628906 347.910156 95.628906 L 351.496094 95.628906 C 351.785156 95.628906 352.019531 95.867188 352.019531 96.15625 L 352.019531 107.171875 C 352.019531 107.460938 351.785156 107.699219 351.496094 107.699219 " fill-opacity="1" fill-rule="nonzero"/><path fill="#9bd2e0" d="M 351.496094 208.296875 L 347.910156 208.296875 C 347.621094 208.296875 347.382812 208.058594 347.382812 207.769531 L 347.382812 196.753906 C 347.382812 196.464844 347.621094 196.226562 347.910156 196.226562 L 351.496094 196.226562 C 351.785156 196.226562 352.019531 196.464844 352.019531 196.753906 L 352.019531 207.769531 C 352.019531 208.058594 351.785156 208.296875 351.496094 208.296875 " fill-opacity="1" fill-rule="nonzero"/><path fill="#9bd2e0" d="M 382.265625 121.933594 L 379.734375 119.398438 C 379.527344 119.191406 379.527344 118.855469 379.734375 118.652344 L 387.523438 110.863281 C 387.726562 110.65625 388.0625 110.65625 388.269531 110.863281 L 390.800781 113.394531 C 391.007812 113.601562 391.007812 113.9375 390.800781 114.144531 L 383.011719 121.933594 C 382.808594 122.136719 382.472656 122.136719 382.265625 121.933594 " fill-opacity="1" fill-rule="nonzero"/><path fill="#9bd2e0" d="M 311.132812 193.0625 L 308.601562 190.53125 C 308.398438 190.324219 308.398438 189.988281 308.601562 189.78125 L 316.390625 181.992188 C 316.59375 181.789062 316.929688 181.789062 317.136719 181.992188 L 319.671875 184.527344 C 319.875 184.734375 319.875 185.070312 319.671875 185.273438 L 311.882812 193.0625 C 311.675781 193.269531 311.339844 193.269531 311.132812 193.0625 " fill-opacity="1" fill-rule="nonzero"/><path fill="#9bd2e0" d="M 393.964844 153.753906 L 393.964844 150.171875 C 393.964844 149.882812 394.203125 149.644531 394.492188 149.644531 L 405.507812 149.644531 C 405.796875 149.644531 406.035156 149.882812 406.035156 150.171875 L 406.035156 153.753906 C 406.035156 154.042969 405.796875 154.28125 405.507812 154.28125 L 394.492188 154.28125 C 394.203125 154.28125 393.964844 154.042969 393.964844 153.753906 " fill-opacity="1" fill-rule="nonzero"/><path fill="#9bd2e0" d="M 293.367188 153.753906 L 293.367188 150.171875 C 293.367188 149.882812 293.605469 149.644531 293.894531 149.644531 L 304.910156 149.644531 C 305.199219 149.644531 305.4375 149.882812 305.4375 150.171875 L 305.4375 153.753906 C 305.4375 154.042969 305.199219 154.28125 304.910156 154.28125 L 293.894531 154.28125 C 293.605469 154.28125 293.367188 154.042969 293.367188 153.753906 " fill-opacity="1" fill-rule="nonzero"/><path fill="#9bd2e0" d="M 379.734375 184.527344 L 382.265625 181.992188 C 382.472656 181.789062 382.808594 181.789062 383.011719 181.992188 L 390.800781 189.78125 C 391.007812 189.988281 391.007812 190.324219 390.800781 190.53125 L 388.269531 193.0625 C 388.0625 193.269531 387.726562 193.269531 387.523438 193.0625 L 379.734375 185.273438 C 379.527344 185.070312 379.527344 184.734375 379.734375 184.527344 " fill-opacity="1" fill-rule="nonzero"/><path fill="#9bd2e0" d="M 308.601562 113.394531 L 311.132812 110.863281 C 311.339844 110.65625 311.675781 110.65625 311.882812 110.863281 L 319.671875 118.652344 C 319.875 118.855469 319.875 119.191406 319.671875 119.398438 L 317.136719 121.933594 C 316.929688 122.136719 316.59375 122.136719 316.390625 121.933594 L 308.601562 114.144531 C 308.398438 113.9375 308.398438 113.601562 308.601562 113.394531 " fill-opacity="1" fill-rule="nonzero"/><path fill="#9bd2e0" d="M 374.976562 171.300781 L 355.699219 152.023438 C 355.699219 152.003906 355.699219 151.984375 355.699219 151.964844 C 355.699219 150.621094 355.261719 149.386719 354.519531 148.386719 L 354.519531 121.214844 C 354.519531 118.566406 352.351562 116.398438 349.703125 116.398438 C 347.054688 116.398438 344.886719 118.566406 344.886719 121.214844 L 344.886719 148.386719 C 344.144531 149.386719 343.703125 150.621094 343.703125 151.964844 C 343.703125 154.558594 345.351562 156.769531 347.660156 157.605469 L 368.167969 178.109375 C 370.039062 179.984375 373.101562 179.984375 374.976562 178.109375 C 376.847656 176.238281 376.847656 173.171875 374.976562 171.300781 " fill-opacity="1" fill-rule="nonzero"/></svg>