<?xml version="1.0" encoding="UTF-8"?>
<svg xmlns="http://www.w3.org/2000/svg" viewBox="0 0 1079.12 699.15">
  <defs>
    <style>
      .cls-1 {
        fill: #efafbe;
      }

      .cls-1, .cls-2, .cls-3, .cls-4, .cls-5, .cls-6, .cls-7, .cls-8, .cls-9, .cls-10, .cls-11, .cls-12, .cls-13, .cls-14, .cls-15, .cls-16 {
        stroke-width: 0px;
      }

      .cls-17, .cls-18 {
        stroke-width: 7px;
      }

      .cls-17, .cls-18, .cls-19, .cls-20, .cls-21, .cls-22, .cls-23, .cls-24, .cls-25, .cls-26, .cls-27, .cls-28, .cls-29 {
        stroke-miterlimit: 10;
      }

      .cls-17, .cls-18, .cls-20, .cls-22, .cls-23, .cls-26, .cls-27, .cls-30, .cls-28, .cls-29 {
        stroke-linecap: round;
      }

      .cls-17, .cls-18, .cls-20, .cls-22, .cls-24, .cls-26, .cls-27, .cls-30, .cls-28, .cls-29 {
        fill: none;
      }

      .cls-17, .cls-28 {
        stroke: #faf6b3;
      }

      .cls-2 {
        fill: #ffd31a;
      }

      .cls-3 {
        fill: #f59cba;
      }

      .cls-18, .cls-20, .cls-22, .cls-23, .cls-27, .cls-30 {
        stroke: #f59cba;
      }

      .cls-4 {
        fill: #a08100;
      }

      .cls-5 {
        fill: #98cfe5;
      }

      .cls-6 {
        fill: #76aeb7;
      }

      .cls-19 {
        stroke-width: .43px;
      }

      .cls-19, .cls-25 {
        stroke: #cc7f92;
      }

      .cls-19, .cls-25, .cls-11 {
        fill: #e897a8;
      }

      .cls-20 {
        stroke-width: 2px;
      }

      .cls-21 {
        fill: #fab016;
        stroke: #e28f0a;
        stroke-width: .04px;
      }

      .cls-7, .cls-23 {
        fill: #f9bfcb;
      }

      .cls-8 {
        fill: #9bd2df;
      }

      .cls-9 {
        fill: #f8beca;
      }

      .cls-10 {
        fill: #faf6b3;
      }

      .cls-22 {
        stroke-width: 3px;
      }

      .cls-23, .cls-30 {
        stroke-width: 5px;
      }

      .cls-24 {
        stroke: #cecece;
      }

      .cls-25 {
        stroke-width: .08px;
      }

      .cls-12 {
        fill: #e5e198;
      }

      .cls-26 {
        stroke: #76aeb7;
        stroke-width: 4px;
      }

      .cls-27 {
        stroke-width: 12px;
      }

      .cls-30 {
        stroke-linejoin: round;
      }

      .cls-13 {
        fill: #8bc3cc;
      }

      .cls-14 {
        fill: #eaeaea;
      }

      .cls-15 {
        fill: #e2bd20;
      }

      .cls-16 {
        fill: #cecece;
      }

      .cls-28 {
        stroke-width: 10px;
      }

      .cls-29 {
        stroke: #f8beca;
        stroke-width: 6px;
      }
    </style>
  </defs>
  <g id="BG">
    <g>
      <g>
        <path class="cls-14" d="m390.19,61.96v547.35c0,5.61,4.55,10.16,10.16,10.16h503.78c5.61,0,10.16-4.55,10.16-10.16V61.96c0-5.61-4.55-10.16-10.16-10.16h-503.78c-5.61,0-10.16,4.55-10.16,10.16Zm164.2,525.71h-122.24c-5.61,0-10.16-4.55-10.16-10.16v-131.98c0-5.61,4.55-10.16,10.16-10.16h122.24c5.61,0,10.16,4.55,10.16,10.16v131.98c0,5.61-4.55,10.16-10.16,10.16Zm0-173.84h-122.24c-5.61,0-10.16-4.55-10.16-10.16v-134.02c0-5.61,4.55-10.16,10.16-10.16h122.24c5.61,0,10.16,4.55,10.16,10.16v134.02c0,5.61-4.55,10.16-10.16,10.16Zm-132.39-186.04V93.75c0-5.61,4.55-10.16,10.16-10.16h122.24c5.61,0,10.16,4.55,10.16,10.16v134.04c0,5.61-4.55,10.16-10.16,10.16h-122.24c-5.61,0-10.16-4.55-10.16-10.16Zm303.16,359.88h-128.91c-5.61,0-10.16-4.55-10.16-10.16v-131.98c0-5.61,4.55-10.16,10.16-10.16h128.91c5.61,0,10.16,4.55,10.16,10.16v131.98c0,5.61-4.55,10.16-10.16,10.16Zm0-173.84h-128.91c-5.61,0-10.16-4.55-10.16-10.16v-134.02c0-5.61,4.55-10.16,10.16-10.16h128.91c5.61,0,10.16,4.55,10.16,10.16v134.02c0,5.61-4.55,10.16-10.16,10.16Zm0-175.88h-128.91c-5.61,0-10.16-4.55-10.16-10.16V93.75c0-5.61,4.55-10.16,10.16-10.16h128.91c5.61,0,10.16,4.55,10.16,10.16v134.04c0,5.61-4.55,10.16-10.16,10.16Zm147.17,349.72h-105.31c-5.61,0-10.16-4.55-10.16-10.16v-131.98c0-5.61,4.55-10.16,10.16-10.16h105.31c5.61,0,10.16,4.55,10.16,10.16v131.98c0,5.61-4.55,10.16-10.16,10.16Zm0-173.84h-105.31c-5.61,0-10.16-4.55-10.16-10.16v-134.02c0-5.61,4.55-10.16,10.16-10.16h105.31c5.61,0,10.16,4.55,10.16,10.16v134.02c0,5.61-4.55,10.16-10.16,10.16Zm0-175.88h-105.31c-5.61,0-10.16-4.55-10.16-10.16V93.75c0-5.61,4.55-10.16,10.16-10.16h105.31c5.61,0,10.16,4.55,10.16,10.16v134.04c0,5.61-4.55,10.16-10.16,10.16Z"/>
        <path class="cls-14" d="m385.17,0h534.14C933.52,0,945.05,11.53,945.05,25.74h0c0,5.61-4.55,10.16-10.16,10.16H369.59c-5.61,0-10.16-4.55-10.16-10.16h0C359.43,11.53,370.96,0,385.17,0Z"/>
      </g>
      <rect class="cls-14" x="222.77" y="150.58" width="111.78" height="145.87" rx="4" ry="4"/>
      <path class="cls-24" d="m258.83,269.53c.4,1.23,1.49,2.1,2.76,2.2,1.2.1,2.36-.51,2.98-1.55.16-.16,1-.97,2.34-.97.85,0,1.7.32,2.34.97l.69.69c.91.91,2.39.91,3.31,0l.54-.54c1.45-1.45,3.81-1.45,5.26,0l.66.66c.86.86,2.25.86,3.11,0l.69-.69c1.54-1.54,4.05-1.46,5.49.17.05.09.98,1.58,2.67,1.6,1.38.01,2.67-.97,3.09-2.42"/>
      <line class="cls-24" x1="239" y1="236.46" x2="318.33" y2="236.46"/>
      <line class="cls-24" x1="239" y1="221.17" x2="318.33" y2="221.17"/>
      <line class="cls-24" x1="237.96" y1="205.87" x2="317.29" y2="205.87"/>
      <rect class="cls-16" x="268.42" y="170.67" width="44.72" height="14.67" rx="4.47" ry="4.47"/>
      <rect class="cls-16" x="243.15" y="172.06" width="16.12" height="13.28" rx="4.05" ry="4.05"/>
      <line class="cls-24" x1="248.72" y1="275.47" x2="308.6" y2="275.47"/>
      <rect class="cls-14" x="114.65" y="427.39" width="174.4" height="22.76" rx="6.73" ry="6.73"/>
      <path class="cls-3" d="m192.77,262.55c.82,10.31,1.11,22.94-.24,37.2-1.53,1.64-3.02,3.35-4.4,5.07-11.39,14.31-14.7,30.15-20.51,57.87-.74,3.44-1.35,6.68-1.87,9.67,2.6-49.63-11.77-80.93-21.1-96.76-.36-.59-.89-1.43-1.47-2.44.14-2.22.33-4.37.5-6.42,3.63-31.34,17.85-51.15,27.89-50.43,9.4.63,19.4,19.99,21.2,46.24Z"/>
      <path class="cls-7" d="m170.36,370.59c-.74-3.75-1.33-7.81-1.83-12.13-1.7-13.48-2.46-29.01-.82-45.41.86-9.09,2.34-17.12,4.11-24.02"/>
      <path class="cls-7" d="m143.18,273.15c.57,1.01,1.11,1.84,1.47,2.44,9.34,15.83,23.7,47.13,21.1,96.76-.53,2.71-.89,5.28-1.25,7.57-.34-.32-.69-.53-1.09-.8-18.77-12.6-49.14-37.69-57.56-76.95-5.06-23.21-3.18-54.84,7.37-57.87,9.82-2.85,24.58,19.99,29.96,28.85Z"/>
      <path class="cls-7" d="m166.12,384.45l.03.17c.08-.15.26-.29.38-.38,6.26-5.52,14.24-12.82,23.17-21.52,51.46-50.2,50.47-65.65,49.07-71.78-.53-2.09-1.71-7.05-5.78-9.51-9.28-5.52-27.75,4.76-40.45,18.34-1.53,1.64-3.02,3.35-4.4,5.07-1.06,1.38-2.12,2.76-3.08,4.16-.42.71-.89,1.35-1.32,2.05-.71,1.21-1.42,2.42-2.09,3.69-.8,1.47-1.54,2.9-2.2,4.55-.08.15-.14.2-.21.35-.38.77-.77,1.64-1.05,2.53-.47,1.03-.83,2.07-1.2,3.22-.42,1.09-.84,2.17-1.17,3.38-.42,1.09-.8,2.24-1.08,3.5-.56,1.67-1.02,3.46-1.5,5.36-1.6,6.1-3.09,12.99-4.7,20.83-.3,1.38-.59,2.75-.91,4.24-.74,3.44-1.35,6.68-1.87,9.67l-1.25,7.57,1.62,4.53Z"/>
      <path class="cls-3" d="m164.34,380.03c-4.37-6.89-8.72-13.9-12.8-21,0,0-2.02-3.54-2.02-3.54-.61-1.03-1.35-2.57-2.08-3.52-4.22-10-9.03-20.15-8.49-31.42,7.91,8.31,10.43,18.68,14.93,28.67,2.91,10.42,6.73,20.66,10.47,30.81h0Z"/>
      <path class="cls-13" d="m214.48,427.02h-85.77c-2.66,0-3.62-3.51-1.34-4.87l92.33-54.92c1.64-.98,3.83.07,3.97,1.97,2.14,27.9-17.58,53.16-45.69,57.44l-.73.11c-27.86,4.25-53.99-13.61-60.56-40.47-.5-2.02,1.62-3.72,3.55-2.94l95.22,38.61c2.66,1.08,1.89,5.04-.98,5.04Z"/>
      <path class="cls-3" d="m205.91,318.07c-6.78,11.19-13.86,21.69-20.42,32.86-6.7,11.09-12.56,22.34-19.34,33.53-.02-.1.02.02.03.03,0,0,0,.01,0,.01h0s-.03.1-.03.1c0,0-.01-.11-.01-.11v.02s-.06-.05-.06-.05h-.01c3.36-25.21,19.01-51.73,39.84-66.4h0Z"/>
      <rect class="cls-16" y="673.28" width="1079.12" height="25.87"/>
    </g>
  </g>
  <g id="Layer_2" data-name="Layer 2">
    <g id="Layer_20" data-name="Layer 20">
      <path class="cls-10" d="m578.73,230.3c.48-7.15,3.35-39.54,27.89-57.32,28.31-20.52,64.87-6.68,77.37-1.94,55.04,20.84,79.98,87.84,90.92,134.88,7.25,31.18-12.73,62.22-43.63,67.58-.23.04-.45.08-.68.11-49.73,8.39-89.2-11.42-103.37-19.45-16.17-41.29-32.34-82.58-48.5-123.86h0Z"/>
      <path class="cls-10" d="m704.89,135.39h0c10.05,0,18.19,8.15,18.19,18.19h0c0,10.05-8.15,18.19-18.19,18.19h0c-10.05,0-18.19-8.15-18.19-18.19h0c0-10.05,8.15-18.19,18.19-18.19Z"/>
    </g>
    <g id="Rosto_Fill" data-name="Rosto Fill">
      <g>
        <path class="cls-7" d="m647.78,327.5c-5.52,1.48-43.85,11.22-65.62-9.25-31.44-29.57-10.14-105.07,30.26-119.88,17.64-6.46,46.65-4.19,60.48,14.27,5.54,7.4,7.21,15.49,7.75,20.93"/>
        <path class="cls-7" d="m614.29,331.11v68.54h64.66v-126.84c2.07.14,5.79.11,9.77-1.71,6.52-2.98,11.9-9.9,11.93-17.85.05-9.64-7.74-20-17.36-19.67-9.15.31-14.35,10.1-14.58,10.55"/>
      </g>
    </g>
    <g id="Shadow_Rosto" data-name="Shadow Rosto">
      <path class="cls-1" d="m614.29,330.87c5.11.7,13.07,1.15,22.38-1.07,6.77-1.61,12.13-4.13,15.93-6.3-4.02,6.67-10.48,15.62-20.45,24.06-6.38,5.4-12.61,9.24-17.86,11.97v-28.66h0Z"/>
    </g>
    <g id="Layer_26" data-name="Layer 26">
      <path class="cls-10" d="m607.89,197.87c6.2,7.24,18.28,19.38,37.28,27.72,14.37,6.31,27.35,8.1,35.96,8.59,1.86-5.52,3.72-11.05,5.58-16.58l-28.16-23.78-42.33-1.9-8.32,5.95h0Z"/>
    </g>
    <g id="Oculos">
      <g>
        <circle class="cls-18" cx="570.96" cy="236.57" r="23.51"/>
        <circle class="cls-18" cx="629.62" cy="236.57" r="23.51"/>
        <line class="cls-18" x1="681.12" y1="231.87" x2="653.04" y2="234.54"/>
        <path class="cls-18" d="m594.38,234.54c.79-.53,2.82-1.73,5.68-1.78,3.08-.05,5.27,1.26,6.05,1.78"/>
      </g>
    </g>
    <g id="Layer_10" data-name="Layer 10">
      <path class="cls-8" d="m821.15,526.13c-.54,48.95-1.07,97.89-1.61,146.84-108.68.48-217.36.95-326.04,1.43,19.9-126.95,5.08-168.56-15.46-180.02-3.03-1.69-7.23-3.32-8.8-7.61-8.74-23.89,76.61-95.67,171.52-105.19,20.29-2.03,58.4-5.36,100.3,14.82.78.37,1.55.76,2.32,1.14,48.42,24.26,78.36,74.45,77.77,128.6h0Z"/>
    </g>
    <g id="Layer_16" data-name="Layer 16">
      <path class="cls-6" d="m581.28,349.12s-.03.06-.05.09c-1.91,3.44-14.27,8.42-14.27,8.42-1,.42-2.03.84-3.07,1.24-19.46,7.56-45.21,11.64-68.07,13.2-12.87.88-24.82.95-34.22.39-.1,0-.18-.01-.27-.02-12.03-.74-19.83-2.51-19.93-4.98-.11-2.85,10.06-6.91,48.23-12.71l71.41-9.82c10.12-.17,19.82.37,20.39,3.18,0,.02.01.05.01.07v.02l-.16.92h0Z"/>
    </g>
    <g id="Mao_Fill" data-name="Mao Fill">
      <g>
        <path class="cls-23" d="m680.05,241.54c.63-.18,4.6-1.27,8.43,1.11,4.53,2.82,4.85,8,4.87,8.46"/>
        <path class="cls-23" d="m685.92,242.25c.42,1.15.99,3.23.71,5.83-.41,3.79-2.39,6.31-3.21,7.25"/>
      </g>
    </g>
    <g id="Mao">
      <g>
        <path class="cls-7" d="m565.56,370.07l-68.17,13.32-1.16-8.85c-.48-3.63-1.34-7.19-2.62-10.61-4.13-11.09-14.19-31.45-36.33-43.47-11.01-5.98-21.55-8.02-29.01-8.72-3.79-.34-6.27-3.76-5.71-6.82.45-2.43,2.8-4.44,5.71-4.6,6.17.38,13.29,1.21,21.08,2.85,7.79,1.64,14.64,3.75,20.43,5.89,1.68,1.49,3.37,2.97,5.05,4.46,1.29-3.82,3.68-8.74,8.14-13.28,4.25-4.32,8.89-6.78,12.64-8.19l-43.41-36.55c-2.36-2.82-2.6-6.72-.79-9.35,2.28-3.29,7.54-4.19,11.36-1.22,14.36,12.24,28.73,24.47,43.1,36.71-1.06-9.96-.86-21.77,5.31-25.08,1.91-1.02,5.15-1.65,7.53-.24.95.56,1.59,1.34,2.02,2.31-3.16,1.36-5.14,4.55-4.95,7.92.21,3.59,2.84,6.65,6.42,7.44.17,1.14.4,2.31.71,3.5,2.46,9.26,7.31,9.16,17.44,22.83,8.92,12.04,13.32,23.13,15.86,29.65,2.76,7.1,5.92,17.02,7.76,29.33l1.59,10.78h0Z"/>
        <path class="cls-7" d="m495.61,292.05c-3.75,1.4-8.39,3.86-12.64,8.19l-37.65-31.77s-.02-.01-.03-.02l-3.2-2.69c-2.81-2.75-3.29-6.86-1.56-9.49,2.18-3.31,7.81-4.22,11.67-.76l43.41,36.55h0Z"/>
        <path class="cls-7" d="m482.97,300.23c-4.46,4.54-6.85,9.46-8.14,13.28-1.68-1.49-3.37-2.97-5.05-4.46-11.09-9.79-22.19-19.58-33.29-29.36-1.61-1.42-2.64-3.45-2.63-5.59.01-2,.81-3.94,2.32-5.29,2.45-2.18,6.27-2.38,9.1-.36.01.01.02.02.03.02l37.65,31.77h0Z"/>
        <path class="cls-22" d="m505.87,305.58c1.46,1.91,4.46,5.31,9.43,7.69,6.34,3.04,12.17,2.64,14.58,2.34"/>
        <path class="cls-20" d="m565.56,370.07l-68.17,13.32-1.16-8.85c-.48-3.63-1.34-7.19-2.62-10.61-4.13-11.09-14.19-31.45-36.33-43.47-11.01-5.98-21.55-8.02-29.01-8.72-3.79-.34-6.27-3.76-5.71-6.82.45-2.43,2.8-4.44,5.71-4.6,6.17.38,13.29,1.21,21.08,2.85,7.79,1.64,14.64,3.75,20.43,5.89,1.68,1.49,3.37,2.97,5.05,4.46,1.29-3.82,3.68-8.74,8.14-13.28,4.25-4.32,8.89-6.78,12.64-8.19l-43.41-36.55c-2.36-2.82-2.6-6.72-.79-9.35,2.28-3.29,7.54-4.19,11.36-1.22,14.36,12.24,28.73,24.47,43.1,36.71-1.06-9.96-.86-21.77,5.31-25.08,1.91-1.02,5.15-1.65,7.53-.24.95.56,1.59,1.34,2.02,2.31-3.16,1.36-5.14,4.55-4.95,7.92.21,3.59,2.84,6.65,6.42,7.44.17,1.14.4,2.31.71,3.5,2.46,9.26,7.31,9.16,17.44,22.83,8.92,12.04,13.32,23.13,15.86,29.65,2.76,7.1,5.92,17.02,7.76,29.33l1.59,10.78h0Z"/>
        <path class="cls-20" d="m495.61,292.05c-3.75,1.4-8.39,3.86-12.64,8.19l-37.65-31.77s-.02-.01-.03-.02l-3.2-2.69c-2.81-2.75-3.29-6.86-1.56-9.49,2.18-3.31,7.81-4.22,11.67-.76l43.41,36.55h0Z"/>
        <path class="cls-20" d="m482.97,300.23c-4.46,4.54-6.85,9.46-8.14,13.28-1.68-1.49-3.37-2.97-5.05-4.46-11.09-9.79-22.19-19.58-33.29-29.36-1.61-1.42-2.64-3.45-2.63-5.59.01-2,.81-3.94,2.32-5.29,2.45-2.18,6.27-2.38,9.1-.36.01.01.02.02.03.02l37.65,31.77h0Z"/>
        <path class="cls-20" d="m520.72,258.62c1.5,3.34.52,8.92,1.47,15.36"/>
        <path class="cls-22" d="m502.86,290.27c-2.87.41-12.33,2.13-20.16,10.41-7.12,7.53-8.67,16.05-9.08,19.05"/>
      </g>
    </g>
    <g id="Layer_12" data-name="Layer 12">
      <path class="cls-8" d="m461.36,372.52l-53.23,69.22,64.92,120.87c16.37-17.02,34.16-38.42,50.81-64.74,35.97-56.86,50.89-111.8,57.59-149.66l-120.09,24.32h0Z"/>
    </g>
    <g id="Layer_21" data-name="Layer 21">
      <path class="cls-26" d="m578.72,358.02c-2.89,18.76-8.82,43.16-21.5,69.45-6.48,13.42-13.56,24.92-20.35,34.55"/>
    </g>
    <g id="Layer_18" data-name="Layer 18">
      <path class="cls-30" d="m602.73,279.61h-13.2c-2.21,0-3.8-2.1-3.2-4.23l10.7-37.76c1.35-4.02,1.81-4.77,1.81-4.77"/>
    </g>
    <g id="Olho">
      <rect class="cls-3" x="575.47" y="245.57" width="6.52" height="6.52" rx="3.26" ry="3.26"/>
      <rect class="cls-3" x="617.33" y="245.57" width="6.52" height="6.52" rx="3.26" ry="3.26"/>
    </g>
    <g id="Estetoscopio">
      <path class="cls-17" d="m680.64,376.61c.61.35,1.22.72,1.83,1.11,1.61,1.01,3.2,2.13,4.78,3.35h0c1.03.81,2.05,1.66,3.06,2.57,14.32,12.8,18.84,29.12,20.07,40.83.84,7.98.15,13.82,0,14.94h0"/>
      <path class="cls-17" d="m570.2,471.3c-.11-1.65-.2-3.52-.24-5.58-.08-4.14.01-9.05.52-14.53,1.03-11.08,2.31-25.49,10.89-41.2,2.16-3.95,4.51-7.49,6.88-10.61,2.6-3.42,5.23-6.36,7.7-8.82,1.48-1.47,2.9-2.79,4.22-3.93,3.47-3.02,6.22-4.9,7.46-5.73,1.03-.69,2.35-1.56,3.94-2.52"/>
    </g>
    <g id="Jaleco">
      <path class="cls-13" d="m711.21,381.99c.96.62,2.86,1.22,3.6,3.1,2.37,5.93,6.91,21.16-1.58,35.32-5.99,9.99-15.28,14.11-18.79,15.46,2.56,5.94,3.45,10.88,3.81,14.03,4.8,42.12-48.39,76.65-52.79,79.43-5.26,3.32-9.74,5.62-12.37,6.9-4.56-3.45-38.17-29.69-35.01-65.37.45-5.06,1.72-11.25,4.8-18.1-3.12-3.97-6.36-8.94-9.04-14.98-8.06-18.15-6.43-35.51-4.6-45.1.24-1.25.96-2.35,1.98-3.06,0,0,.51-.37,1.13-.59,20.93-7.45,52.27-8.45,52.27-8.45,30.96-.99,52.83-7.42,66.58,1.41h0Z"/>
      <line class="cls-26" x1="743.32" y1="535.03" x2="717.8" y2="674.47"/>
    </g>
    <g id="Layer_32" data-name="Layer 32">
      <path class="cls-1" d="m506.4,316.96c5.23,6.44,12.54,17.53,14.92,32.66.59,3.79.81,7.35.78,10.59-9.01,1.86-18.01,3.72-27.02,5.58,3.77-16.28,7.54-32.56,11.31-48.83h0Z"/>
    </g>
    <g id="Cachorro">
      <path id="Base" class="cls-7" d="m556.45,630.39c-19.32-.68-42.58-3.89-67.57-12.63-6.91-2.43-13.39-5.06-19.41-7.82l-1.11-48.85c.87,38.19,1.74,76.38,2.62,114.57h-105.31c1.47-6.6,4.07-11.36,6.43-14.65,16.57-23.09,53.12-18.14,55.45-17.79-4.64-22.85-10.16-46.8-16.74-71.67-7.37-27.86-15.33-54.07-23.55-78.56l-21.6-128.77c7.44-6.22,22.52-17.05,44.36-21.15,12.1-2.28,22.6-1.8,30.21-.78,22.1-8.76,44.21-17.53,66.31-26.29,7.44,13.85,8.42,25.49,8.24,32.57-.83,31.41-27.02,61.07-65.92,75.33,22.27,14.78,56.66,36.64,100.45,60.42,68.38,37.15,96.54,44.54,123.99,74.94,18.75,20.77,40.14,55.54,46.46,115.67-.37.23-.73.46-1.1.68-.29.02-.58.04-.86.05h-207.07c-1.22-10.54,2.03-17.13,3.66-19.88,8.18-13.74,28.98-19.89,50.96-13.34-3.61-4.06-24.2-27.88-18.47-56.49,1.02-5.11,3.33-16.63,13.03-24.33,15.84-12.58,38.9-4.98,45.56-2.79,33.78,11.13,47.19,46.21,49.66,53.01l-98.67,18.56Z"/>
      <g>
        <path class="cls-3" d="m440.43,341.88c3.45,3.44,14.19,15.04,13.15,29.72-1.21,17.03-17.95,33.57-42.31,38-7.33,1.33-14.8-1.57-19.32-7.49-2.15-2.81-4.3-5.75-6.44-8.82-7.79-11.18-13.95-21.96-18.83-31.78,11.43-7.69,21.83-12.07,29.23-14.61,4.33-1.49,10.81-3.69,19.71-4.9,10.18-1.4,18.8-.87,24.82-.1h0Z"/>
        <path class="cls-3" d="m473.45,328.28c3.81-2.32,9.6-5.58,17-8.76,9.19-3.95,13.79-5.93,15.56-4.19,2.99,2.93-.89,17.02-11.12,20.67-7.1,2.53-15.9-.45-21.45-7.72h0Z"/>
        <rect class="cls-3" x="479.27" y="349.53" width="5.3" height="5.3" rx="1.61" ry="1.61"/>
        <rect class="cls-3" x="487.58" y="352.18" width="5.3" height="5.3" rx="1.61" ry="1.61"/>
        <rect class="cls-3" x="476.62" y="359.25" width="5.3" height="5.3" rx="1.61" ry="1.61"/>
      </g>
      <path class="cls-3" d="m366.75,361.55c5.55,6.03,9.92,13.04,12.91,20.68,20.17,51.52,21.28,95.32.76,111.26-3.61,2.81-8.47,5.19-15.14,6.28-11.77.76-18.54-2.36-22.6-5.54-17.84-13.94-15.83-54.4,5.86-103.41,4.67-10.56,10.84-20.4,18.15-29.36h0s.05.06.08.09h0Z"/>
      <path class="cls-3" d="m646.01,535.79c-8.23,1.46-14.11,2.94-18.23,4.14-2.97.86-5.93,1.84-9.83,1.3-1.83-.26-2.35-.63-6.84-1.56-3.12-.64-4.67-.9-6.49-1.09-2.63-.28-5.37-.4-8.37.74-2.37.89-3.23,1.94-5.23,3.14-2.24,1.34-5.72,2.77-10.99,2.88-4.98-.11-13.9-1.05-22.76-6.54-13.28-8.24-18.28-21.68-20.14-26.68-3.2-8.6-2.55-12.99-4.23-20.54-.89-3.98-1.58-6.05-2.51-8.42-2.62-6.62-6.26-11.39-8.97-14.41,22.82,12.68,41.43,22.25,54.43,28.75,14.7,7.34,31.9,15.55,55.2,29.26,6.31,3.71,11.47,6.88,14.96,9.06h0Z"/>
      <g>
        <path class="cls-18" d="m655.25,613.01c-1.07-5.38-7.6-35.68-35.46-51.2-5.02-2.8-32.16-17.93-53.23-4.2-22.33,14.54-17.73,48.41-17.25,51.68,2.52,17.12,11.79,28.52,16.04,33.16"/>
        <path class="cls-18" d="m467.9,608.77c-.37-18.2-.74-36.41-1.12-54.62"/>
      </g>
      <path class="cls-7" d="m426.13,364.54h0c2.06,0,3.74,1.67,3.74,3.74h0c0,2.06-1.67,3.74-3.74,3.74h0c-2.06,0-3.74-1.67-3.74-3.74h0c0-2.06,1.67-3.74,3.74-3.74Z"/>
    </g>
    <g id="Rabo_Cachorro" data-name="Rabo Cachorro">
      <path class="cls-7" d="m707.88,644.39c7.67-1.22,16.91-3.76,26.4-8.92,27.92-15.17,38.06-42.28,42.24-53.43,16.09-43.01-.56-86.56-13.04-110.29-1.5-2.87,2.31-5.55,4.49-3.16,28.84,31.64,42.39,73.14,34.73,112.55-1.45,7.47-12.49,59.76-59.49,83.02-10.44,5.17-21,9.78-34.31,9.2l-1-28.98h0Z"/>
    </g>
    <g id="Camisa">
      <path class="cls-3" d="m611.46,375.7c.14,4.02.33,8.06.55,12.13,2.59,46.29,10.43,89.41,21.48,129.06,23.13-34.94,43.08-79.13,46.69-131.2.29-4.14.46-8.23.54-12.26-8.53,2.88-21.06,6.06-36.45,6.31-13.48.22-24.73-1.88-32.82-4.04h0Z"/>
    </g>
    <g id="Boca">
      <path class="cls-3" d="m601.09,294.32c6.56,3.95,14.76,3.44,20.33-1.17,7.25-5.99,6-15.55,5.92-16.06-3.37,3.26-7.78,6.97-13.32,10.49-4.67,2.97-9.1,5.14-12.94,6.74h0Z"/>
    </g>
    <g id="Estetoscopio-2">
      <path class="cls-29" d="m683.94,507.32c-.41-1.69-9.88-42.72,10.39-60.01,2.76-2.36,9.63-8.21,19.19-8.07,8.9.13,15.19,5.37,17.56,7.34,13.09,10.91,15.71,36.5,7.73,64.77"/>
      <rect class="cls-7" x="681.47" y="496.21" width="15.36" height="15.36" rx="5.48" ry="5.48" transform="translate(-81.57 136.71) rotate(-10.7)"/>
      <rect class="cls-7" x="726.48" y="499" width="15.36" height="15.36" rx="5.48" ry="5.48" transform="translate(91.18 1124.97) rotate(-78.49)"/>
      <path class="cls-9" d="m570.41,465.73h0c5.8.25,10.3,5.16,10.05,10.96h0c-.25,5.8-5.16,10.3-10.96,10.05h0c-5.8-.25-10.3-5.16-10.05-10.96h0c.25-5.8,5.16-10.3,10.96-10.05Z"/>
      <path class="cls-27" d="m682.32,471.41c.36-3.96,1.44-9.21,4.44-14.61,1.37-2.46,6.99-11.9,17.77-15.71,1.71-.61,5.15-1.78,9.73-1.57,3.83.18,6.63,1.24,7.93,1.74,9.67,3.76,14.86,12.59,16.18,14.9,4.93,8.63,5.03,17,4.83,20.77"/>
    </g>
    <g id="Coleira">
      <path class="cls-28" d="m468.83,434.38c-1.34,5.97-7.89,31.91-33.28,49.3-22.34,15.31-45.29,14.41-52.12,13.89"/>
    </g>
    <g id="Pingente">
      <path class="cls-13" d="m436.64,494.36h0c3.83,0,6.93,3.1,6.93,6.93h0c0,3.83-3.1,6.93-6.93,6.93h0c-3.83,0-6.93-3.1-6.93-6.93h0c0-3.83,3.1-6.93,6.93-6.93Z"/>
    </g>
  </g>
  <g id="Layer_3" data-name="Layer 3">
    <path class="cls-12" d="m987.92,602.75l-10.56,1.12-8.08-111.04c.05-2.56,1.72-4.73,3.93-5.31,2.7-.71,5.81,1.07,6.63,4.19,2.69,37.01,5.39,74.03,8.08,111.04Z"/>
    <rect class="cls-25" x="968.64" y="503.95" width="16.38" height="32.76" rx="8.19" ry="8.19" transform="translate(-38.24 79.23) rotate(-4.56)"/>
    <rect class="cls-25" x="966.42" y="498.89" width="17.55" height="1.83" rx=".91" ry=".91" transform="translate(-45.6 101.31) rotate(-5.81)"/>
    <path class="cls-21" d="m980.03,519.73h0s-.03,0-.04,0c.02,0,.03,0,.05,0Z"/>
    <polygon class="cls-15" points="971.6 520.77 971.6 520.77 971.6 520.77 971.6 520.77 971.6 520.77"/>
    <polygon class="cls-2" points="971.6 520.77 971.6 520.77 971.6 520.77 971.6 520.77 971.6 520.77"/>
    <path class="cls-11" d="m979.43,523.17s.07.1.1.17c.02.06.03.11.04.15,0,0,.02-.01.03-.03,0,0,0,0,0-.01,0-.05-.02-.13-.06-.21-.03-.05-.06-.09-.08-.12,0,.02-.02.03-.03.05Z"/>
    <path class="cls-11" d="m979.84,523.15c.07.02.13.04.2.06,0-.01,0-.02,0-.03-.03-.01-.05-.02-.08-.03-.02-.01-.04-.03-.06-.04-.01,0-.03-.01-.04-.02,0,.01,0,.03,0,.04,0,.01,0,.02,0,.03Z"/>
    <polygon class="cls-4" points="971.6 520.77 971.6 520.77 971.6 520.77 971.6 520.77 971.6 520.77"/>
  </g>
  <g id="Layer_4" data-name="Layer 4">
    <path class="cls-8" d="m965.94,547.61h80.4v85.47c0,22.19-18.01,40.2-40.2,40.2h0c-22.19,0-40.2-18.01-40.2-40.2v-85.47h0Z"/>
  </g>
  <g id="Logo">
    <rect class="cls-12" x="1009.46" y="582.82" width="10.5" height="15.13" rx="1.75" ry="1.75" transform="translate(46.8 -73.96) rotate(4.27)"/>
    <rect class="cls-12" x="1021.15" y="590.83" width="10.5" height="15.13" rx="1.75" ry="1.75" transform="translate(47.43 -74.81) rotate(4.27)"/>
    <rect class="cls-12" x="991.01" y="595.5" width="24.8" height="35.73" rx="3.51" ry="3.51" transform="translate(334.04 1580.31) rotate(-86.74)"/>
    <path class="cls-5" d="m1015.73,582.27c-1.23-.3-1.84-1.67-1.28-2.8.89-1.81,1.81-2.87,2.47-2.74s1.09,1.46,1.23,3.48c.09,1.33-1.13,2.38-2.43,2.06h0Z"/>
    <path class="cls-5" d="m1027.21,589.4c-1.24-.23-1.93-1.56-1.44-2.72.79-1.86,1.64-2.97,2.31-2.88s1.17,1.39,1.43,3.41c.17,1.32-.99,2.44-2.3,2.19h0Z"/>
    <path class="cls-5" d="m992.19,610.45c.94-.84,2.41-.58,3.03.53.99,1.76,1.34,3.12.87,3.59s-1.82.08-3.57-.95c-1.15-.67-1.32-2.28-.33-3.16h0Z"/>
    <path class="cls-5" d="m1013.3,614.61c.24,1.24-.74,2.37-2.01,2.33-2.02-.06-3.37-.45-3.52-1.1-.16-.64.87-1.6,2.65-2.58,1.17-.64,2.63.03,2.88,1.34h0Z"/>
    <path class="cls-5" d="m1002.35,603.73c1.15-.52,2.48.17,2.74,1.41.41,1.97.35,3.38-.25,3.68s-1.76-.47-3.12-1.98c-.9-.99-.58-2.57.64-3.12h0Z"/>
    <path class="cls-19" d="m1026.96,619.34c-.32.64-.74,1.42-1.29,2.27-.79,1.24-1.51,2.13-1.85,2.53-1.82,2.11-3.52,3.38-4.08,3.76-4.57,3.09-10.24,4.48-16.1,3.4l-7.03-1.27c-11.73-2.16-19.41-13.34-17.3-25.01.07-.26.09-.53.17-.79.06-.05.12-.15.18-.2.01,1.29.52,2.39.94,3.18,0-.7.08-1.76.59-2.9.06-.1.12-.2.13-.26.46,1,.98,1.89,1.57,2.63.2.18.34.4.49.57.2.18.35.35.55.47,0,.05.05.06.1.11.05.06.1.06.1.11.05,0,.1.06.16.07q.05.06.1.11c.05.06.1.06.21.12h.05q0,.06.05.06t.1.06c.05.06.1.06.1.11.05,0,.1.06.16.07s.05.06.1.06h.05c0,.06.05.06.1.07.05.06.1.06.15.12.05,0,.11,0,.1.06h.05q.05,0,.1.07h.11c.1.07.21.13.37.14,0,.05.05.06.1.06s.11,0,.1.06h.16c.05.02.16.08.26.09h.05c.74.17,1.43.16,2.08.11h.05c.22-.03.38-.07.6-.11-.53,1.3-.96,2.87-1.08,4.36-.13,1.76.18,3.39,1.21,4.54,1.93,2.13,4.57.4,11.24,1.54,7.56,1.26,9.68,4.47,12.58,2.97,1.56-.85,2.44-2.55,2.85-4.45.08.06.21.17.39.29,1.35.94,2.59,1.19,2.85,1.24.17.03.43.08.76.1-.04.11-.11.34-.06.63.03.17.09.31.14.4.11-.1.25-.25.38-.45.11-.18.18-.34.23-.47.09.09.18.2.28.34.12.18.2.36.25.5.18.5.2.93.23,1.25.05-.05.12-.12.2-.21.1-.11.44-.48.75-1.06.12-.23.27-.55.39-.93.22.18.45.34.68.5.12.08.24.16.37.23-.02-.07-.09-.36.06-.65.09-.17.22-.27.29-.32.4-.05.81-.1,1.21-.15.39-.05.77-.09,1.16-.14Z"/>
    <path class="cls-19" d="m1022.03,587.05c-.5-1.96-1.81-3.72-3.61-4.71-.25-.18-.57-.31-.88-.44-.47-.2-.94-.34-1.47-.43h-.16c-.32-.09-.69-.12-1.06-.14-.21-.02-.38.03-.59,0-3.44.12-6.46,2.62-7.15,6.16l-.56,3.22-.6,2.95c.05.11.09.22.08.33.05.06.05.11.04.16.05.06.05.11.04.16l.05.06c0,.11.04.22.03.32.05.11.04.16.03.27.05.11.09.22.08.33s.04.16.03.27c0,.05.04.16.03.27v.05c0,.05.04.11.04.16,0,.11-.02.21.03.32v.16c-.02.11.03.22.02.32l-.03.37c0,.11.04.22.03.27l-.02.32v.05s-.05.59-.05.59c0,.11-.07.16-.07.26-.02.27-.09.53-.11.79-.16.74-.43,1.41-.74,2.03-.07.16-.13.26-.24.41,0,.05-.07.16-.12.2,0,.05-.06.05-.06.1,0,0,0,.05-.06.05v.05c.47.09.89.17,1.37.26,3.78.98,6.49,3.48,8.2,6.34.23-.2.51-.39.74-.53.06-.1.17-.15.23-.25.06-.05.17-.09.23-.2.51-.34,1.02-.78,1.54-1.22.05,0,.11-.05.17-.09l.11-.1c.11,0,.17-.09.28-.14.34-.3.63-.54.97-.78l2.2-12.26h.05s0-.05,0-.05v-.05c0-.05.07-.16.07-.21l.07-.26v-.05l.06-.05v-.05s0-.05,0-.05c0-.05.06-.05.06-.1v-.05s0-.05.06-.05v-.11s0,0,.01-.05c.05,0,.06-.05.06-.1q.06-.05.06-.1t.06-.05v-.11s.07-.05.07-.05c0-.05,0-.11.06-.1.06-.16.13-.26.19-.36l.19-1.11c.24-1.11.16-2.18-.08-3.22Zm-3,2.83c-.23.95-.62,2.58-1.83,3.67-.23.2-.46.39-.79.53-1.28.65-2.6.39-2.86.32-.32-.08-1.42-.32-2.26-1.29-.39-.51-.67-1.12-.79-1.67-.24-1.04-.06-2.04.04-2.67.12-.85.4-2.49,1.83-3.67.91-.74,2.07-1.18,3.34-.98,1.95.41,3.24,1.79,3.46,3.9.06.59-.03,1.12-.06,1.49-.07.16-.07.26-.08.37Z"/>
    <path class="cls-19" d="m1034.97,598.25c-.24-.5-.52-.91-.8-1.23.1-.75.24-2.51-.66-4.41,0,0-1.31-2.73-4.07-3.84,0,0,0,0-.01,0-.34-.13-.68-.24-1.04-.33-.61-.14-1.22-.2-1.83-.19h0c-.2,0-.41.02-.61.04-1.21.13-2.39.54-3.41,1.22-.57.38-1.1.83-1.56,1.34-.12.13-.23.26-.34.4-.13.17-.25.33-.36.51-.01.02-.02.03-.03.05-.02.03-.05.07-.07.1-.01.02-.02.04-.03.06h0c-.07.12-.14.23-.2.35-.02.03-.04.07-.06.11-.01.03-.03.05-.04.08,0,.02-.02.04-.03.06-.01.02-.02.04-.03.06-.02.04-.04.08-.06.12s-.04.08-.06.12c0,0,0,0,0,0h0s0,0,0,0c-.01.04-.03.08-.05.12,0,.02-.02.04-.03.06,0,.02-.01.04-.02.05,0,0,0,0,0,.01,0,.02-.02.04-.03.06,0,.02-.02.04-.03.06,0,.01-.01.03-.02.04,0,.01-.01.03-.01.04,0,.03-.02.06-.03.08l-.08.23c-.03.08-.06.16-.08.25,0,0,0,.02,0,.03s0,.01,0,.02v.02s-.01.03-.01.04l-2.25,12.22h0s.09-.03.13-.04c0,0,.01,0,.02,0,.04-.01.07-.02.11-.03.01,0,.02,0,.04-.01.04-.01.09-.03.14-.04,0,0,0,0,0,0,.03-.01.06-.02.09-.03.03-.01.07-.02.1-.03.13-.04.27-.07.4-.1.03,0,.07,0,.1-.01.02,0,.04,0,.07-.01.01,0,.02,0,.03,0,.19-.02.38-.05.57-.08,0,0,0,0,0,0,.08-.01.16-.03.25-.04h0c1.34-.14,2.64-.27,3.97-.4,1.09-.35,2.08-.53,3.08-.51h.01s.01,0,.02,0t0,0s0,0,.02,0h0c.42,0,.83.05,1.23.12.2.04.4.08.6.13.09.02.17.05.25.07v-.02c.64.13,1.2.33,1.81.66.9.48,1.6,1.09,2.16,1.72l1.03-5.6c.1.01.25.04.41.13.4.23.48.67.5.76.09-.21.2-.55.2-.98,0-.64-.23-1.11-.36-1.33.12.07.28.19.45.34,0,0,.09.08.17.17.28.32.57,1.07.57,1.07.03.07.06.16.1.26.17-.7.49-2.41-.34-4.16Zm-9.36,3.92c-.3-.05-1.3-.21-2.21-.95h0c-.1-.09-.21-.18-.31-.28-.39-.39-.67-.83-.86-1.28-.01-.03-.02-.05-.03-.08,0,0,0,0,0-.02-.02-.05-.04-.1-.06-.14-.03-.08-.05-.16-.08-.23-.01-.04-.02-.08-.04-.13-.01-.05-.03-.1-.04-.15,0,0,0-.02,0-.03,0-.03-.02-.06-.02-.1,0,0,0-.02,0-.02,0-.04-.02-.08-.02-.12-.01-.07-.02-.13-.03-.19-.02-.13-.04-.26-.05-.38,0-.06,0-.13-.01-.18,0-.06,0-.12-.01-.18,0-.08,0-.16,0-.24,0-.08,0-.16,0-.23,0-.06,0-.12,0-.18,0-.08,0-.17.01-.25,0-.07,0-.13.01-.2.01-.11.02-.21.03-.3.05-.6.15-1.58.61-2.56.07-.14.13-.27.21-.4.04-.07.08-.13.12-.2.17-.27.37-.53.61-.79.03-.04.07-.07.1-.11.01-.01.02-.03.04-.04,0,0,.01-.01.02-.02,0,0,.01-.01.02-.02.06-.06.12-.11.18-.16.12-.1.24-.2.37-.3,0,0,0,0,0,0,.07-.05.14-.1.22-.15.09-.06.18-.11.28-.17.05-.03.11-.06.16-.09,0,0,.02,0,.03-.01.07-.04.14-.07.21-.1,0,0,.01,0,.02,0,.06-.03.12-.05.18-.08.03-.01.07-.02.1-.04.04-.02.09-.03.13-.04.03-.01.07-.03.1-.03.02,0,.04,0,.05-.01.03,0,.05-.01.08-.02.04-.01.09-.02.13-.03.07-.02.15-.03.23-.04.05,0,.1-.02.15-.02.06,0,.12-.01.18-.02.01,0,.02,0,.04,0,.05,0,.1,0,.15,0,.16,0,.33,0,.5.02.4.04.78.13,1.13.25,1.58.54,2.64,1.84,2.95,3.68.14.87.06,1.54,0,2.05-.18,1.24-.53,3.58-2.47,4.75-1.37.82-2.79.64-3.1.59Zm-2-10s-.01.01-.02.02c0,0,.01-.01.02-.02.06-.06.12-.11.18-.16-.06.05-.12.11-.18.16Z"/>
    <path class="cls-19" d="m995.93,605.48s0-.05.01-.08c.04-.32.06-.64.08-.95.01-.27.02-.54.01-.81-.07-.06-.15-.12-.22-.19-.03-.02-.05-.05-.08-.07-.03-.02-.06-.05-.09-.08-.03-.02-.05-.04-.07-.07-.05-.05-.1-.09-.15-.14-.08-.08-.17-.16-.25-.24-.11-.11-.23-.22-.34-.34-.06-.06-.12-.13-.18-.19-.08-.09-.16-.18-.24-.27-.05-.05-.1-.11-.14-.16-.05-.06-.1-.11-.15-.17-.09-.1-.17-.21-.26-.32-.06-.08-.12-.16-.18-.24-.17-.23-.34-.47-.5-.71-.03-.05-.06-.09-.09-.14-.05-.08-.1-.15-.15-.23-.04-.07-.08-.13-.12-.19-.04-.06-.07-.13-.11-.19-.04-.06-.07-.13-.11-.19-.05-.1-.11-.19-.16-.29-.09-.17-.17-.32-.25-.48-.27-.56-.49-1.09-.67-1.6-.33-.93-.52-1.76-.63-2.44,0-.01,0-.03,0-.04h0c-.49-.22-1.01-.39-1.53-.5-.74-.15-1.5-.18-2.26-.08-.51.07-1.01.19-1.51.38-.98.37-1.85.98-2.55,1.77-1.13,1.28-1.83,3-1.88,4.87-.54.66-1.34,1.83-1.77,3.48-.45,1.73-.3,3.18-.16,3.97.3-.22.79-.62,1.23-1.26.05-.07.1-.15.15-.23,0,1.29.53,2.44.97,3.19-.02-.75.07-1.92.72-3.16h0c.43,1,.96,1.89,1.57,2.65.16.19.32.38.49.55.17.18.34.34.52.49.04.03.08.07.12.1.04.03.08.07.12.1.04.03.08.07.12.1.04.03.08.06.12.09.06.04.12.08.17.12.02.01.03.02.05.04.02.02.05.03.07.05.03.02.07.04.1.06.04.03.08.06.13.08.05.03.09.06.14.09.03.02.05.03.08.05.01,0,.03.02.05.03.04.03.09.05.13.07.05.02.09.05.13.07.05.02.1.05.15.07.01,0,.02,0,.03.01.03.02.07.03.1.05.03.01.06.03.1.04.12.05.23.09.36.14.04.02.08.03.12.04,0,0,0,0,0,0,.04.01.08.03.12.04.03.01.07.02.11.03.09.02.18.05.27.07.02,0,.03.01.05.01.75.17,1.47.17,2.1.1.03,0,.05,0,.08,0,.09-.01.18-.03.26-.04.1-.02.2-.04.29-.06,0,0,0,0,0,0,0,0,.01,0,.02,0,.82-.18,1.43-.47,1.7-.61.05-.03.1-.05.12-.06.06-.04.12-.07.18-.11,0,0,.01,0,.02-.01.06-.04.12-.07.18-.11.03-.02.06-.04.08-.06.03-.02.06-.04.09-.06,0,0,0,0,.01,0,.04-.03.08-.06.12-.09.01,0,.02-.02.04-.02.02-.02.05-.04.07-.06.02-.01.04-.03.05-.04.03-.02.05-.04.07-.06.01-.02.03-.03.05-.04.04-.03.08-.07.12-.1.04-.04.08-.07.12-.11.04-.04.08-.08.12-.12.03-.03.06-.06.09-.09.06-.06.12-.13.17-.19.03-.04.06-.07.09-.1,0,0,.01-.02.02-.02.02-.02.04-.05.06-.07.02-.03.05-.06.07-.09,0,0,0,0,.01,0l.07-.1s.05-.06.07-.1c.11-.15.21-.3.3-.45.03-.05.06-.1.09-.16.08-.14.15-.27.22-.41.03-.06.07-.13.1-.2.02-.03.03-.07.05-.1.04-.09.08-.18.12-.28.01-.04.03-.08.05-.13.04-.09.08-.19.11-.28.02-.06.04-.12.06-.19.01-.03.02-.06.03-.09.01-.04.03-.09.04-.14h0c.01-.06.03-.1.04-.15,0-.03.01-.05.02-.08,0-.02.02-.05.02-.07v-.03s.03-.07.03-.07v-.03s.02-.06.03-.09c0-.02,0-.04.01-.07v-.02s.01-.03.01-.03c0-.02,0-.03.01-.05v-.02s.03-.1.04-.14h0s0-.04,0-.04c0-.02,0-.04.01-.05v-.05s.02-.03.02-.04l.03-.17s0-.04.01-.06v-.04c.05-.22.08-.44.11-.66Z"/>
    <path class="cls-19" d="m1033.47,616.72s-1.83,2.97-6.27,4.35c-.17.09-.93.31-1.53.42,0-.05.06-.05.06-.1-.05,0-.16.04-.22.04-.11.05-.16.04-.22.04h-.11c-.06.04-.16.03-.22.03-.16-.01-.38.03-.59.06h-.11c-.33.07-.7.1-1.03.13,0,.05-.06.1-.12.15,0,.05,0,.11-.07.16.05.06,0,.05,0,.11l-.04.48c-.05-.06-.1-.06-.16-.07-.16-.07-.31-.13-.46-.25-.05-.06-.1-.11-.15-.12-.05-.06-.15-.12-.2-.18-.05,0-.05-.06-.1-.06,0,.05-.06.1-.06.1-.07.26-.15.52-.33.83-.13.26-.31.51-.43.72l-.11.1c-.12.2-.29.3-.41.45-.03-.32-.05-.75-.23-1.25-.19-.39-.33-.67-.47-.84h-.05c-.06.05-.06.1-.12.15l-.48.77c-.04-.16-.08-.33-.07-.54-.04-.16-.03-.32-.02-.48-.53-.04-1.01-.13-1.42-.32-.26-.07-.58-.15-.78-.27-.31-.13-.57-.26-.78-.33-.46-.3-.87-.6-1.02-.72-.71-.54-1.15-1.05-1.3-1.22-.64-.74-1.02-1.41-1.2-1.86-.19-.34-.47-.94-.67-1.76-.13-.44-.2-.93-.22-1.41v-.05c-.03-.22-.02-.43,0-.64l.02-.32c-.05-.06-.05-.11-.04-.22l.02-.32c.06-.05.06-.1.06-.1l.02-.21c.02-.21.08-.37.1-.58,0-.11.07-.21.07-.26,0-.11.01-.16.07-.21l.02-.21c.06-.05.07-.16.07-.21.06-.05.06-.1.06-.16.06-.1.07-.16.07-.26q.06-.05.06-.1c0-.05.06-.05.06-.1s.07-.16.07-.21.06-.05.06-.05v-.05c0-.05.06-.1.07-.16s.06-.05.06-.1c.06-.1.07-.16.13-.26s.12-.15.18-.25v-.11c.12-.1.18-.2.25-.3.06-.1.12-.15.18-.25,0-.05.06-.1.12-.15,0-.05.06-.1.12-.15,0-.05.06-.1.12-.15.06-.05.06-.1.12-.15.06-.1.17-.15.23-.25.06-.05.17-.09.23-.2.51-.34,1.02-.78,1.54-1.22.05,0,.11-.05.17-.09l.11-.1c.11,0,.17-.09.28-.14.28-.14.77-.32,1.33-.54.06-.05.11-.05.16-.04.22-.09.49-.12.65-.17h.05s0-.05.06-.05c.22-.04.38-.03.59-.06.11-.05.16-.04.27-.03,1.9-.29,3.84-.57,5.79-.85.38-.08.81-.1,1.24-.07.75.06,1.33.15,1.91.25.05,0,.16.01.21.07l.06-.05c.58.15,1.15.35,1.77.67.93.5,1.63,1.09,2.17,1.72,1.46,1.69,1.93,3.56,2,3.96,0,.04.01.07.02.12.54,3.11-.86,5.44-1.28,6.1Z"/>
    <path class="cls-19" d="m1006.54,599.92c-.16.72-.4,1.4-.72,2.01-.08.14-.16.29-.24.42-.04.07-.08.14-.13.2-.02.03-.04.07-.07.1-.02.03-.05.07-.07.1-.04.06-.08.12-.13.17-.04.06-.09.12-.13.17-.09.11-.18.22-.28.32-.06.07-.13.13-.19.2-.02.02-.05.05-.08.07-.34.32-.73.6-1.03.8-.3.2-.52.31-.52.31-.06.03-.11.06-.16.08-.03.01-.05.03-.08.04,0,0,0,0-.01,0,0,0-.02.01-.03.02-.02.01-.18.09-.19.09-.04.02-1.6.69-3.76.22-.25-.05-1.96-.44-3.41-1.71-.07-.06-.15-.12-.22-.19-.03-.02-.05-.05-.08-.07-.03-.02-.06-.05-.09-.08-.03-.02-.05-.04-.07-.07-.05-.05-.1-.09-.15-.14-.03-.03-.06-.06-.09-.09-.05-.05-.1-.1-.16-.15-.11-.11-.23-.22-.34-.34-.06-.06-.12-.13-.18-.19-.08-.09-.16-.18-.24-.27-.05-.05-.1-.11-.14-.16-.05-.06-.1-.11-.15-.17-.09-.1-.17-.21-.26-.32-.06-.08-.12-.16-.18-.24-.17-.23-.34-.47-.5-.71-.03-.05-.06-.09-.09-.14-.05-.08-.1-.15-.15-.23-.04-.07-.08-.13-.12-.19-.04-.06-.07-.13-.11-.19-.04-.06-.07-.13-.11-.19-.05-.1-.11-.19-.16-.29-.09-.17-.17-.32-.25-.48-.27-.56-.49-1.09-.67-1.6-.33-.93-.52-1.76-.63-2.44,0-.01,0-.03,0-.04h0c0-.07,0-.11,0-.11-.05-.63-.14-1.95.38-3.51.18-.53,1.18-3.34,4-4.7.26-.13,1.12-.52,2.32-.68.56-.07,1.97-.23,3.57.39,1.73.67,2.69,1.86,3.23,2.52.63.78.97,1.46,1.39,2.3.56,1.09.98,2.2,1.27,3.28.03.11.06.22.08.32.01.05.03.11.04.16.01.05.03.11.04.16.01.06.03.11.04.17.04.16.07.33.09.5.02.12.04.23.06.35.01.08.02.16.03.25.01.11.03.21.04.32,0,0,0,.02,0,.02,0,.08.02.15.02.23.01.14.02.28.03.42,0,.09,0,.18.01.27,0,0,0,.01,0,.02,0,.08,0,.15,0,.23,0,.06,0,.12,0,.18,0,.01,0,.03,0,.04,0,.09,0,.17,0,.25,0,.11,0,.21-.01.31,0,.02,0,.04,0,.06,0,.1-.01.19-.02.29,0,.09-.02.18-.03.27,0,.08-.02.17-.03.25,0,.01,0,.02,0,.03,0,.04-.01.08-.02.12-.04.23-.08.46-.13.68Z"/>
  </g>
</svg>