<?xml version="1.0" encoding="UTF-8"?>
<svg xmlns="http://www.w3.org/2000/svg" viewBox="0 0 1166.48 757.53">
  <defs>
    <style>
      .cls-1 {
        stroke: #cecece;
        stroke-width: .9px;
      }

      .cls-1, .cls-2, .cls-3, .cls-4, .cls-5, .cls-6 {
        fill: none;
      }

      .cls-1, .cls-2, .cls-4, .cls-5, .cls-6 {
        stroke-miterlimit: 10;
      }

      .cls-7 {
        fill: #efafbe;
      }

      .cls-7, .cls-8, .cls-9, .cls-10, .cls-11, .cls-12, .cls-13, .cls-14, .cls-15, .cls-16 {
        stroke-width: 0px;
      }

      .cls-8 {
        fill: #f59cba;
      }

      .cls-2 {
        stroke: #8bc3cc;
      }

      .cls-2, .cls-3, .cls-4, .cls-5, .cls-6 {
        stroke-linecap: round;
      }

      .cls-2, .cls-3, .cls-6 {
        stroke-width: 4.51px;
      }

      .cls-9 {
        fill: #f9bfcb;
      }

      .cls-3 {
        stroke-linejoin: round;
      }

      .cls-3, .cls-4 {
        stroke: #f59cba;
      }

      .cls-10 {
        fill: #9bd2df;
      }

      .cls-11 {
        fill: #faf6b3;
      }

      .cls-4 {
        stroke-width: 6.32px;
      }

      .cls-5 {
        stroke: #faf6b3;
        stroke-width: 9.02px;
      }

      .cls-12 {
        fill: #f7c9da;
      }

      .cls-13 {
        fill: #fffdbd;
      }

      .cls-6 {
        stroke: #9bd2df;
      }

      .cls-14 {
        fill: #8bc3cc;
      }

      .cls-15 {
        fill: #eaeaea;
      }

      .cls-16 {
        fill: #cecece;
      }
    </style>
  </defs>
  <g id="Layer_1" data-name="Layer 1">
    <g>
      <g>
        <path class="cls-15" d="m421.78,66.97v591.66c0,6.06,4.92,10.98,10.98,10.98h544.56c6.06,0,10.98-4.92,10.98-10.98V66.97c0-6.06-4.92-10.98-10.98-10.98H432.76c-6.06,0-10.98,4.92-10.98,10.98Zm177.49,568.26h-132.13c-6.06,0-10.98-4.92-10.98-10.98v-142.67c0-6.06,4.92-10.98,10.98-10.98h132.13c6.06,0,10.98,4.92,10.98,10.98v142.67c0,6.06-4.92,10.98-10.98,10.98Zm0-187.91h-132.13c-6.06,0-10.98-4.92-10.98-10.98v-144.87c0-6.06,4.92-10.98,10.98-10.98h132.13c6.06,0,10.98,4.92,10.98,10.98v144.87c0,6.06-4.92,10.98-10.98,10.98Zm-143.11-201.1V101.33c0-6.06,4.92-10.98,10.98-10.98h132.13c6.06,0,10.98,4.92,10.98,10.98v144.89c0,6.06-4.92,10.98-10.98,10.98h-132.13c-6.06,0-10.98-4.92-10.98-10.98Zm327.7,389.01h-139.34c-6.06,0-10.98-4.92-10.98-10.98v-142.67c0-6.06,4.92-10.98,10.98-10.98h139.34c6.06,0,10.98,4.92,10.98,10.98v142.67c0,6.06-4.92,10.98-10.98,10.98Zm0-187.91h-139.34c-6.06,0-10.98-4.92-10.98-10.98v-144.87c0-6.06,4.92-10.98,10.98-10.98h139.34c6.06,0,10.98,4.92,10.98,10.98v144.87c0,6.06-4.92,10.98-10.98,10.98Zm0-190.12h-139.34c-6.06,0-10.98-4.92-10.98-10.98V101.33c0-6.06,4.92-10.98,10.98-10.98h139.34c6.06,0,10.98,4.92,10.98,10.98v144.89c0,6.06-4.92,10.98-10.98,10.98Zm159.08,378.03h-113.84c-6.06,0-10.98-4.92-10.98-10.98v-142.67c0-6.06,4.92-10.98,10.98-10.98h113.84c6.06,0,10.98,4.92,10.98,10.98v142.67c0,6.06-4.92,10.98-10.98,10.98Zm0-187.91h-113.84c-6.06,0-10.98-4.92-10.98-10.98v-144.87c0-6.06,4.92-10.98,10.98-10.98h113.84c6.06,0,10.98,4.92,10.98,10.98v144.87c0,6.06-4.92,10.98-10.98,10.98Zm0-190.12h-113.84c-6.06,0-10.98-4.92-10.98-10.98V101.33c0-6.06,4.92-10.98,10.98-10.98h113.84c6.06,0,10.98,4.92,10.98,10.98v144.89c0,6.06-4.92,10.98-10.98,10.98Z"/>
        <path class="cls-15" d="m416.35,0h577.38C1009.08,0,1021.55,12.47,1021.55,27.82h0c0,6.06-4.92,10.98-10.98,10.98H399.51c-6.06,0-10.98-4.92-10.98-10.98h0C388.53,12.47,400.99,0,416.35,0Z"/>
      </g>
      <rect class="cls-15" x="240.81" y="162.77" width="120.83" height="157.68" rx="4" ry="4"/>
      <path class="cls-1" d="m279.78,291.35c.43,1.33,1.61,2.27,2.98,2.38,1.3.11,2.55-.55,3.23-1.68.17-.17,1.08-1.05,2.53-1.05.92,0,1.83.35,2.53,1.05l.74.74c.99.99,2.59.99,3.57,0l.58-.58c1.57-1.57,4.12-1.57,5.69,0l.71.71c.93.93,2.44.93,3.37,0l.75-.75c1.66-1.66,4.38-1.58,5.93.18.06.09,1.06,1.71,2.88,1.72,1.49.01,2.88-1.05,3.34-2.62"/>
      <line class="cls-1" x1="258.35" y1="255.61" x2="344.1" y2="255.61"/>
      <line class="cls-1" x1="258.35" y1="239.07" x2="344.1" y2="239.07"/>
      <line class="cls-1" x1="257.22" y1="222.53" x2="342.97" y2="222.53"/>
      <rect class="cls-16" x="290.15" y="184.49" width="48.34" height="15.86" rx="4.47" ry="4.47"/>
      <rect class="cls-16" x="262.83" y="185.99" width="17.43" height="14.35" rx="4.05" ry="4.05"/>
      <line class="cls-1" x1="268.86" y1="297.77" x2="333.58" y2="297.77"/>
      <rect class="cls-15" x="123.94" y="461.99" width="188.52" height="24.6" rx="6.73" ry="6.73"/>
      <path class="cls-8" d="m208.38,283.8c.89,11.14,1.2,24.8-.26,40.21-1.66,1.78-3.26,3.62-4.76,5.48-12.31,15.46-15.89,32.59-22.17,62.55-.8,3.72-1.46,7.23-2.02,10.45,2.81-53.65-12.72-87.48-22.81-104.6-.38-.64-.97-1.55-1.58-2.63.15-2.4.35-4.72.54-6.94,3.93-33.88,19.29-55.29,30.15-54.51,10.16.68,20.97,21.61,22.92,49.98Z"/>
      <path class="cls-9" d="m184.15,400.59c-.8-4.06-1.44-8.45-1.98-13.12-1.84-14.57-2.66-31.36-.88-49.09.93-9.83,2.53-18.51,4.44-25.97"/>
      <path class="cls-9" d="m154.77,295.26c.62,1.09,1.2,1.99,1.58,2.63,10.09,17.11,25.62,50.94,22.81,104.6-.58,2.93-.96,5.7-1.36,8.18-.37-.34-.75-.57-1.18-.87-20.29-13.62-53.12-40.74-62.22-83.18-5.47-25.09-3.44-59.28,7.97-62.55,10.62-3.08,26.57,21.61,32.39,31.19Z"/>
      <path class="cls-9" d="m179.57,415.58l.03.18c.08-.17.28-.32.41-.42,6.77-5.97,15.39-13.86,25.05-23.27,55.63-54.26,54.56-70.97,53.05-77.6-.57-2.26-1.84-7.62-6.25-10.28-10.03-5.97-29.99,5.15-43.73,19.83-1.66,1.78-3.26,3.62-4.76,5.48-1.15,1.49-2.29,2.99-3.33,4.49-.46.76-.97,1.46-1.42,2.22-.77,1.31-1.54,2.62-2.26,3.99-.87,1.59-1.67,3.13-2.38,4.92-.08.17-.15.22-.23.38-.41.83-.83,1.77-1.14,2.73-.51,1.11-.9,2.23-1.3,3.48-.46,1.18-.91,2.35-1.27,3.66-.46,1.18-.86,2.42-1.17,3.79-.6,1.8-1.1,3.74-1.62,5.79-1.73,6.6-3.34,14.04-5.09,22.52-.32,1.49-.64,2.98-.98,4.58-.8,3.72-1.46,7.23-2.02,10.45l-1.36,8.18,1.75,4.89Z"/>
      <path class="cls-8" d="m177.65,410.8c-4.59-7.51-9.15-15.15-13.42-22.89,0,0-2.12-3.85-2.12-3.85-.64-1.12-1.42-2.79-2.17-3.84-4.54-10.74-9.58-21.74-9.75-33.71,7.84,9.31,10.74,20.49,15.56,31.23,3.38,11.18,7.66,22.17,11.89,33.06h0Z"/>
      <path class="cls-14" d="m231.84,461.59h-92.71c-2.88,0-3.92-3.79-1.45-5.26l99.8-59.36c1.77-1.05,4.14.08,4.29,2.13,2.32,30.16-19,57.46-49.39,62.09l-.79.12c-30.11,4.59-58.36-14.71-65.46-43.74-.54-2.19,1.75-4.02,3.84-3.17l102.93,41.74c2.88,1.17,2.04,5.45-1.06,5.45Z"/>
      <path class="cls-8" d="m222.57,343.82c-7.71,11.8-15.5,23.14-22.61,35.2-7.23,11.99-13.48,24.26-20.38,36.56,0,0,0-.04,0-.04l.04.08h0s0,.02,0,.02c0,0-.03.11-.03.11,0,0-.01-.11-.01-.11.03.04-.06-.04-.06-.04,0,0,0,0,0,0,4.63-27.28,20.97-55,43.06-71.76h0Z"/>
      <rect class="cls-16" y="727.78" width="1166.48" height="27.97"/>
    </g>
  </g>
  <g id="Layer_4" data-name="Layer 4">
    <path class="cls-8" d="m83.59,682.33c4.01.65,18.07,3.44,27.86,15.98,4.53,5.8,6.59,11.68,7.58,15.67-1.55,2.26-4.61,6.11-9.73,9.22-5.19,3.15-10.07,4.08-12.8,4.4-3.57-2.55-5.87-5.15-7.27-6.97-9.69-12.55-7.49-28.22-6.97-31.96.38-2.73.93-4.94,1.33-6.35Z"/>
    <path class="cls-12" d="m84.71,682.43c.42-.86,1.12-2.11,2.25-3.38,2.73-3.06,6.04-4.12,8.3-4.81,8.17-2.51,17.51-.74,20.08-.2,2.38,2.27,5.87,6.28,7.89,12.19,4.66,13.63-2.48,25.78-3.69,27.76-1.56-4.54-6.14-15.84-17.82-24.07-6.44-4.54-12.76-6.53-17-7.48Z"/>
    <path class="cls-8" d="m83.89,681.15c-1.91-1.96-4.05-4.62-5.84-8.07-.58-1.11-1.06-2.2-1.46-3.23,2.53-1.6,8.87-5.13,17.52-4.92,12.22.3,20.04,7.86,21.75,9.6-3.08-1-11.54-3.28-21.13.1-5.05,1.78-8.64,4.51-10.84,6.51Z"/>
    <path class="cls-12" d="m76.59,669.85c.48,1.17,1.07,2.46,1.82,3.82.75,1.36,1.52,2.55,2.25,3.59-1.42,1.21-2.85,2.42-4.27,3.63-3.77.48-7.55.96-11.32,1.44.95-1.9,2.47-4.44,4.84-7.02,2.4-2.61,4.85-4.35,6.68-5.45Z"/>
    <path class="cls-8" d="m76.98,683.86c-2.1.88-5.6,2.67-8.91,6.09-3.42,3.54-5.09,7.21-5.89,9.37-.22-2.16-.3-5.1.26-8.5.59-3.59,1.69-6.47,2.64-8.5,1.38-.55,3.26-1.14,5.56-1.43,2.31-.29,4.29-.19,5.77,0,.19.99.39,1.98.58,2.98Z"/>
    <path class="cls-12" d="m77.52,683.53c-2.01.66-5.82,2.21-9.37,5.76-3.82,3.83-5.36,7.98-5.97,10.04.19,1.96,1.59,14.45,12.73,22.53,9.23,6.7,19.1,5.99,21.59,5.74-3.19-3.28-9.14-10.29-12.21-21.02-2.54-8.88-2.02-16.47-1.38-20.82-1.79-.74-3.59-1.49-5.38-2.23Z"/>
    <rect class="cls-13" x="76.84" y="674.78" width="10.33" height="12.69" rx="3.39" ry="3.39" transform="translate(416.17 81.97) rotate(36.02)"/>
  </g>
  <g id="Cachorro">
    <g>
      <path class="cls-9" d="m846.88,727.61c-.42-18.63-.85-37.26-1.27-55.89,5.12,2.35,10.62,4.59,16.5,6.65,21.25,7.43,41.04,10.16,57.46,10.74.74,1.21,1.48,2.34,2.19,3.37.02.02.03.04.04.06,2.12,3.07,3.99,5.28,4.99,6.43.12.13.24.26.35.38-18.7-5.57-36.38-.34-43.34,11.35-1.39,2.34-4.15,7.95-3.11,16.91h176.1c.24-.02.49-.03.73-.04.31-.2.62-.39.94-.59-5.37-51.12-23.57-80.7-39.51-98.36-7.33-8.11-14.72-14.3-23.21-19.95-7,1.24-12,2.5-15.5,3.52-2.53.73-5.05,1.57-8.36,1.11-1.55-.22-2-.54-5.81-1.32-2.64-.55-3.97-.77-5.52-.94-2.24-.24-4.57-.33-7.12.63-2.02.76-2.75,1.65-4.45,2.67-1.91,1.14-4.86,2.36-9.34,2.45-4.24-.1-11.82-.89-19.35-5.56-11.29-7.01-15.55-18.44-17.12-22.69-2.73-7.32-2.17-11.05-3.6-17.47-.75-3.39-1.34-5.15-2.14-7.16-2.23-5.63-5.32-9.69-7.62-12.26-10.24-5.89-19.7-11.52-28.29-16.8-1.29.24-2.69.42-4.19.55-5.75-.08-10.13-1.47-13.52-3.37-.46-.26-.91-.53-1.35-.82-3.43,9.16-10.7,22.91-25.66,33.16-4.72,3.24-9.47,5.62-14.04,7.37-8.17,3.13-15.74,4.23-21.47,4.54-1.54.08-2.95.11-4.2.1,6.5,19.65,12.8,40.57,18.66,62.72,5.6,21.15,10.29,41.51,14.24,60.95-1.98-.29-33.07-4.51-47.16,15.13-2.01,2.8-4.22,6.85-5.47,12.46h89.55Zm-23.3-148.28c0,1.63-.66,3.1-1.73,4.17-1.06,1.06-2.54,1.72-4.17,1.72-3.26,0-5.9-2.64-5.9-5.9,0-1.62.66-3.1,1.73-4.17,1.06-1.07,2.54-1.72,4.17-1.72s3.1.66,4.17,1.72c1.07,1.07,1.73,2.54,1.73,4.17Z"/>
      <path class="cls-9" d="m913.5,564.89c-8.31-4.52-16.23-8.95-23.72-13.26,2.3,2.57,5.39,6.63,7.62,12.26.8,2.01,1.39,3.78,2.14,7.16,1.43,6.42.87,10.15,3.6,17.47,1.58,4.25,5.83,15.68,17.12,22.69,7.53,4.67,15.12,5.47,19.35,5.56,4.48-.09,7.44-1.3,9.34-2.45,1.7-1.02,2.43-1.91,4.45-2.67,2.55-.96,4.88-.86,7.12-.63,1.55.17,2.88.39,5.52.94,3.82.79,4.26,1.11,5.81,1.32,3.32.46,5.83-.37,8.36-1.11,3.5-1.02,8.5-2.28,15.5-3.52,0,0-.01,0-.02-.01-3.92-2.61-8.07-5.1-12.56-7.61,0,0,0,0-.01,0-16.76-9.38-38.2-19.07-69.65-36.15Z"/>
      <path class="cls-9" d="m837.97,531.31l1.82-2.08c-.6-.51-1.18-1.05-1.75-1.62l-.05,2.98-.02.73Z"/>
      <path class="cls-9" d="m832.79,537.25c1.63-.15,3.11-.34,4.41-.55.25-1.43.5-2.84.74-4.24l.02-1.15-5.18,5.94Z"/>
      <path class="cls-9" d="m813.52,575.17c-1.07,1.07-1.73,2.54-1.73,4.17,0,3.26,2.64,5.9,5.9,5.9,1.63,0,3.1-.66,4.17-1.72,1.07-1.07,1.73-2.54,1.73-4.17s-.66-3.1-1.73-4.17c-1.06-1.07-2.54-1.72-4.17-1.72s-3.1.66-4.17,1.72Z"/>
      <path class="cls-9" d="m712.5,427.07c4.65,26.32,30.42,47.95,64.93,55.05-.07.06-.14.13-.21.19-.12.11-.24.21-.35.32-.63,5.84-1.19,11.88-1.64,18.12-.31,4.33-.58,8.75-.78,13.26-.08,1.61-.14,3.24-.2,4.87-.63,17.2-.35,33.27.51,48.03l.22.32c.08-.07.17-.13.25-.19-.06.09-.13.18-.19.27-.05.06-.09.12-.14.18l.8,4.78c.46,1.35.91,2.71,1.37,4.09,1.25.01,2.65-.02,4.2-.1,5.72-.31,13.3-1.41,21.47-4.54,4.57-1.74,9.32-4.13,14.04-7.37,14.97-10.25,22.23-24,25.66-33.16-.92-.59-1.79-1.25-2.64-1.97l-1.82,2.08-.02,1.15c-.25,1.41-.5,2.82-.74,4.24-1.3.2-2.78.39-4.41.55l5.18-5.94.02-.73.05-2.98c-1.27-1.28-2.44-2.71-3.53-4.29-1.56-2.27-2.93-4.82-4.11-7.64-6.93-16.57-7.33-42.39-1.1-72.4-.78,1.69-1.6,3.4-2.45,5.12-1.41,2.86-2.85,5.6-4.3,8.23-3.05,5.55-8.97,8.93-15.3,8.74-21.05-.65-37.21-12.45-40.38-26.62-2.67-11.95,4.52-22.85,7.14-26.43-9.89-2.3-19.78-4.61-29.67-6.91-3.82,6.43-10.61,9.81-16.72,8.61-5.95-1.17-10.16-6.46-11.75-10.76-.68-1.85-.88-3.51-.53-4.59-.01,0-.03,0-.04-.01-4.51,12.58-3.87,22.5-2.82,28.42Zm30.33,4.65l1.75-.26c.75-.11,1.44.4,1.55,1.15l.26,1.75c.11.75-.4,1.44-1.15,1.55l-1.75.26c-.74.12-1.44-.4-1.55-1.14l-.26-1.76c-.11-.74.4-1.44,1.15-1.55Zm-3.45-7.83l1.75-.26c.75-.11,1.44.4,1.55,1.15l.26,1.75c.12.75-.4,1.44-1.14,1.55l-1.76.26c-.74.11-1.44-.4-1.55-1.15l-.26-1.75c-.11-.74.4-1.44,1.15-1.55Zm-6.65,3.28l1.75-.26c.74-.11,1.44.4,1.55,1.15l.26,1.75c.11.74-.4,1.44-1.15,1.55l-1.75.26c-.75.11-1.44-.4-1.55-1.15l-.26-1.75c-.11-.75.4-1.44,1.15-1.55Z"/>
      <path class="cls-8" d="m889.78,551.64c2.3,2.57,5.39,6.63,7.62,12.26.8,2.01,1.39,3.78,2.14,7.16,1.43,6.42.87,10.15,3.6,17.47,1.58,4.25,5.83,15.68,17.12,22.69,7.53,4.67,15.12,5.47,19.35,5.56,4.48-.09,7.44-1.3,9.34-2.45,1.7-1.02,2.43-1.91,4.45-2.67,2.55-.96,4.88-.86,7.12-.63,1.55.17,2.88.39,5.52.94,3.82.79,4.26,1.11,5.81,1.32,3.32.46,5.83-.37,8.36-1.11,3.5-1.02,8.5-2.28,15.5-3.52,0,0-.01,0-.02-.01-2.94-1.83-7.27-4.49-12.56-7.61,0,0,0,0-.01,0-.05-.03-.09-.06-.14-.08-19.82-11.65-34.45-18.64-46.94-24.88-11.06-5.53-26.88-13.66-46.29-24.45Z"/>
      <g>
        <path class="cls-4" d="m1003.59,674.34c-.91-4.58-6.47-30.34-30.16-43.54-4.27-2.38-27.35-15.24-45.26-3.57-18.99,12.37-15.08,41.17-14.67,43.95,2.14,14.55,10.03,24.25,13.64,28.19"/>
        <path class="cls-4" d="m844.27,670.73c-.32-15.48-.63-30.96-.95-46.45"/>
      </g>
      <path class="cls-9" d="m1048.35,702.68c6.52-1.04,14.38-3.2,22.45-7.58,23.74-12.9,32.37-35.96,35.92-45.43,13.68-36.57-.48-73.61-11.09-93.79-1.27-2.44,1.97-4.72,3.82-2.69,24.53,26.91,36.05,62.2,29.53,95.71-1.23,6.35-10.62,50.81-50.59,70.6-8.88,4.4-17.86,8.32-29.18,7.83l-.85-24.64Z"/>
      <path class="cls-9" d="m832.79,537.25c1.63-.15,3.11-.34,4.41-.55.25-1.43.5-2.84.74-4.24l.02-1.15-5.18,5.94Z"/>
      <path class="cls-9" d="m766.88,438.74c3.16,14.17,19.33,25.97,40.38,26.62,6.34.19,12.25-3.19,15.3-8.74,1.45-2.63,2.89-5.37,4.3-8.23.85-1.72,1.67-3.43,2.45-5.12,3.72-8.04,6.66-15.71,8.98-22.78-.1-.06-.2-.12-.31-.18-5.44-3.13-13.9-7.2-24.73-9.45-.12-.03-.24-.05-.36-.07-1.11-.23-2.25-.43-3.41-.62-.08-.01-.15-.02-.23-.04-.16-.03-.32-.05-.49-.08-2.82-.42-5.77-.71-8.85-.82-10.47-.39-19.24,1.34-25.51,3.15-.13-.03-.25-.06-.38-.09-2.62,3.58-9.82,14.48-7.14,26.43Z"/>
      <path class="cls-9" d="m741.68,433.27l.26,1.76c.11.74.81,1.26,1.55,1.14l1.75-.26c.75-.11,1.26-.8,1.15-1.55l-.26-1.75c-.11-.74-.8-1.26-1.55-1.15l-1.75.26c-.74.12-1.26.81-1.15,1.55Z"/>
      <path class="cls-9" d="m738.22,425.44l.26,1.75c.12.75.81,1.26,1.55,1.15l1.76-.26c.74-.11,1.26-.8,1.14-1.55l-.26-1.75c-.11-.74-.8-1.26-1.55-1.15l-1.75.26c-.74.11-1.26.81-1.15,1.55Z"/>
      <rect class="cls-9" x="731.68" y="427.01" width="4.5" height="4.5" rx="1.37" ry="1.37" transform="translate(-55.51 113.52) rotate(-8.52)"/>
      <path class="cls-9" d="m715.88,403.24c1.59,4.3,5.8,9.6,11.75,10.76,6.11,1.2,12.9-2.18,16.72-8.61-9.67-2.24-19.34-4.49-29-6.74-.35,1.08-.16,2.74.53,4.59Z"/>
      <g>
        <path class="cls-8" d="m766.88,438.74c3.16,14.17,19.33,25.97,40.38,26.62,6.34.19,12.25-3.19,15.3-8.74,1.45-2.63,2.89-5.37,4.3-8.23.85-1.72,1.67-3.43,2.45-5.12,3.72-8.04,6.66-15.71,8.98-22.78.14-.4.27-.81.4-1.21,0,0-.02,0-.02-.01-10.06-4.78-18.95-7.15-25.42-8.41-.12-.03-.24-.05-.36-.07-.21-.04-.42-.08-.62-.12-.91-.17-1.91-.35-3.02-.54-.16-.03-.32-.05-.49-.08-3.54-.57-8.11-1.1-13.7-1.03-8.74.11-15.92,1.64-20.88,3.04-.05.07-.11.15-.16.22-2.62,3.58-9.82,14.48-7.14,26.43Z"/>
        <path class="cls-8" d="m715.88,403.24c1.59,4.3,5.8,9.6,11.75,10.76,6.11,1.2,12.9-2.18,16.72-8.61.12-.19.23-.39.34-.59-3.49-1.47-8.77-3.48-15.4-5.23-8.23-2.16-12.35-3.25-13.62-1.56-.14.18-.24.39-.32.63-.35,1.08-.16,2.74.53,4.59Z"/>
        <path class="cls-8" d="m738.22,425.44l.26,1.75c.12.75.81,1.26,1.55,1.15l1.76-.26c.74-.11,1.26-.8,1.14-1.55l-.26-1.75c-.11-.74-.8-1.26-1.55-1.15l-1.75.26c-.74.11-1.26.81-1.15,1.55Z"/>
        <rect class="cls-8" x="731.68" y="427.01" width="4.5" height="4.5" rx="1.37" ry="1.37" transform="translate(-55.51 113.52) rotate(-8.52)"/>
        <path class="cls-8" d="m741.68,433.27l.26,1.76c.11.74.81,1.26,1.55,1.14l1.75-.26c.75-.11,1.26-.8,1.15-1.55l-.26-1.75c-.11-.74-.8-1.26-1.55-1.15l-1.75.26c-.74.12-1.26.81-1.15,1.55Z"/>
      </g>
      <path class="cls-8" d="m830.4,515.68c1.18,2.83,2.55,5.38,4.11,7.64,1.09,1.58,2.26,3.01,3.53,4.29.57.57,1.15,1.12,1.75,1.62.84.72,1.72,1.38,2.64,1.97.44.29.89.57,1.35.82,3.39,1.91,7.77,3.3,13.52,3.37,1.5-.13,2.9-.31,4.19-.55,7.34-1.34,11.55-4.25,14.12-6.96,13.25-13.97,6.46-47.75-17.97-86.23-5.26-8.3-11.69-15.79-18.96-22.4,0,0-.01.02-.02.02,0,0,.02,0,.02.01-.13.4-.26.8-.4,1.21-2.33,7.07-5.26,14.73-8.98,22.78-6.23,30.01-5.83,55.83,1.1,72.4Zm7.76,4.87l.07.04s-.05.03-.07.05v-.09Z"/>
      <path class="cls-8" d="m838.22,520.59l-.07-.04v.09s.05-.03.07-.05Z"/>
      <path class="cls-8" d="m829.31,443.27c3.72-8.04,6.66-15.71,8.98-22.78.14-.4.27-.81.4-1.21,0,0-.02,0-.02-.01-.02.03-.03.04-.04.06-.22.32-.43.65-.65.98-3.56,5.52-6.14,11.62-7.6,18.04-.38,1.65-.73,3.29-1.07,4.91Z"/>
      <rect class="cls-9" x="786.36" y="429.31" width="6.36" height="6.36" rx="3.18" ry="3.18" transform="translate(1634.47 743.1) rotate(171.47)"/>
      <path class="cls-4" d="m717.14,399.21c-5.86,16.35-2.92,33.84,7.84,45.04,8.41,8.75,18.92,10.89,23.27,11.51"/>
      <path class="cls-9" d="m832.79,537.25c1.63-.15,3.11-.34,4.41-.55.25-1.43.5-2.84.74-4.24l.02-1.15-5.18,5.94Z"/>
      <path class="cls-9" d="m762.45,494.67c.07.17.15.35.23.54.11-.09.22-.19.32-.28-.18-.09-.37-.17-.55-.26Z"/>
      <path class="cls-9" d="m776.87,482.63c.12-.11.24-.21.35-.32l-.3-.19c-.02.17-.04.33-.06.51Z"/>
      <path class="cls-9" d="m838.16,520.63s.05-.03.07-.05l-.07-.04v.09Z"/>
      <path class="cls-9" d="m837.97,531.31l1.82-2.08c-.6-.51-1.18-1.05-1.75-1.62l-.05,2.98-.02.73Z"/>
      <path class="cls-14" d="m783.48,568.72c0,3.26,2.64,5.9,5.9,5.9,1.63,0,3.1-.66,4.17-1.72,1.07-1.07,1.73-2.54,1.73-4.17s-.66-3.1-1.73-4.17c-1.06-1.07-2.54-1.72-4.17-1.72s-3.1.66-4.17,1.72c-1.07,1.07-1.73,2.54-1.73,4.17Z"/>
      <path class="cls-5" d="m769.99,546.03c4.68,3.38,25.51,17.64,54.32,14.09,25.36-3.13,41.03-18.1,45.53-22.73"/>
    </g>
  </g>
  <g id="Personagem">
    <g>
      <path class="cls-10" d="m630.91,483.5c-2.78.5-5.54,1-8.33,1.51,2.37,20.35,4.75,40.71,7.12,61.06.39,3.36-.38,6.8-2.38,9.53-1.07,1.46-2.47,2.7-4.27,3.14-2.84.7-5.46-.87-6.36-1.41-9.3-5.59-7.42-61.39-30.36-99.56-3.44-5.73-6.77-9.94-8.47-12-3.8,16.93-7.59,33.87-11.39,50.8-1.53,6.66-5.1,12.46-9.98,16.76-4.89,4.29-11.1,7.08-17.9,7.74-1.58.16-2.18,2.15-.95,3.15l.71.59c8.93,7.24,11.8,19.62,6.97,30.07l-18.51,39.92c.46.1.92.23,1.38.4,5.06,1.87,7.65,7.49,5.78,12.55l-1.17,3.17c.08,0,.16,0,.23,0,.9,0,1.82.16,2.73.47,4.35,1.51,6.65,6.26,5.14,10.61l-3.76,10.82c-.57,1.65-1.6,2.99-2.9,3.96,45.68,52.17,99.89,76.76,135.45,60.41,15.2-6.99,24.42-19.71,32.88-33.44,45.41-73.74,18.63-165.7,8.86-194.88-2.3.42-4.59.83-6.89,1.25"/>
      <path class="cls-9" d="m620.24,469.9c4.55,4.58,8.03,9.3,10.67,13.6,24.54-4.46,49.09-8.93,73.63-13.39-1.74-15.14-7.65-42.3-29.06-66.38-3.93-4.41-7.96-8.25-11.96-11.62-2.36-1.98-4.71-3.79-7.01-5.44-5.11-3.66-10-6.54-14.35-8.8-5.69-2.96-12.79-1.63-16.78,3.38-.15.2-.3.39-.44.59-5.56,7.7-1.75,16.77-1.56,17.19-5.61-1.73-11.59.81-14.07,5.73-2.75,5.45-.55,12.53,5.21,15.63-5.51-2.48-11.76-.66-14.59,3.64-3.4,5.18-1.43,13.32,5.21,16.68-6.43,2.39-8.06,4.9-8.34,6.77-.92,6.09,11.61,10.49,23.45,22.4Z"/>
      <path class="cls-10" d="m656.45,326.87c0,13.38,5.43,25.5,14.19,34.27.37.37.76.74,1.14,1.1,2.03,1.9,4.22,3.63,6.55,5.15,7.63,5.01,16.76,7.93,26.56,7.93,26.76,0,48.45-21.69,48.45-48.45,0-13.38-5.42-25.5-14.19-34.27-8.77-8.76-20.89-14.19-34.27-14.19-13.38,0-25.49,5.42-34.26,14.19-8.76,8.77-14.19,20.89-14.19,34.27Zm7.48-.27c0-11.4,4.61-21.71,12.08-29.17,7.46-7.48,17.78-12.09,29.18-12.09s21.71,4.61,29.18,12.09c7.46,7.46,12.09,17.77,12.09,29.17,0,22.79-18.48,41.27-41.27,41.27-11.4,0-21.71-4.62-29.18-12.09-7.47-7.47-12.08-17.78-12.08-29.18Z"/>
      <path class="cls-8" d="m656.5,386.67c2.3,1.65,4.65,3.45,7.01,5.44.85-1.5,1.71-3.02,2.58-4.53,4.07-7.06,8.16-13.79,12.25-20.18-2.33-1.53-4.53-3.26-6.55-5.15-4.67,6.73-9.41,14.12-14.04,22.21-.42.75-.84,1.48-1.26,2.22Z"/>
      <path class="cls-9" d="m418.79,738.76c15.67,6.4,48.4,19.09,61.81,18.75,2.13-.05,7.97-.2,9.9-3.64,1.83-3.28-1.82-6.06-.52-10.42,1.84-6.16,10.59-5.63,11.98-11.46.97-4.06-2.89-5.9-1.56-9.91,1.4-4.21,6.12-3.5,7.82-7.81,1.55-3.93-1.89-5.79-1.05-11.47.74-4.93,3.59-5.29,4.69-9.9,1.54-6.43-2.39-12.56-3.9-14.73-.11-.15-.19-.28-.27-.38-5.05-7.17-12.81-9.42-16.68-10.13-.98-.18-1.71-.26-2.08-.3l9.38-29.7c.96-4.42-1.52-8.9-5.73-10.42-4.13-1.48-8.81.28-10.94,4.17-4.21,8.78-8.43,17.55-12.65,26.32-.97,2.01-1.93,4.02-2.9,6.02-2.01,4.2-7.17,5.8-11.21,3.47l-1.58-.91c-11.5,24.15-23.01,48.29-34.51,72.44Z"/>
      <path class="cls-10" d="m225.27,616.83c7.04,57.68,86.14,106.71,192.27,124.54.42-.87.83-1.74,1.24-2.61,11.5-24.15,23.01-48.29,34.51-72.44l1.58.91c4.03,2.33,9.19.73,11.21-3.47.97-2.01,1.93-4.01,2.9-6.02l-40.54-128.31c-2.81-8.9.06-18.62,7.24-24.57l3.93-3.26c1.07-.88.76-2.58-.54-3.04l-7.8-2.75c-9.09-3.21-16.01-10.68-18.51-19.98l-23.33-86.76h0s-2.74-10.2-2.74-10.2c-.06-.22-.11-.44-.16-.66-3.01,1.09-6.04,2.33-9.09,3.71-2.44,1.09-4.88,2.29-7.32,3.58-5.06,2.67-19.3,10.61-46.38,39.6-20.96,22.45-49.09,52.55-71.38,100.04-17.68,37.65-30.39,64.72-27.1,91.7Z"/>
      <path class="cls-8" d="m491.01,667.67c3.87.71,11.63,2.95,16.68,10.13.08.11.16.23.27.38l15.53-42.09c-2.28-2.18-3.21-5.58-2.11-8.76l1.23-3.54,2.53-7.29c1.17-3.37,4.29-5.51,7.65-5.6l1.17-3.17c1.86-5.06-.72-10.68-5.78-12.55-.46-.16-.92-.3-1.38-.4-.67-.14-1.33-.2-2-.2-3.98,0-7.71,2.44-9.17,6.38l-3.65,9.9-20.97,56.81Z"/>
      <path class="cls-11" d="m523.49,636.09c.84.8,1.86,1.45,3.03,1.86,2.71.94,5.57.4,7.71-1.19,1.3-.97,2.33-2.32,2.9-3.96l3.76-10.82c1.51-4.35-.79-9.1-5.14-10.61-.9-.31-1.83-.47-2.73-.47-.08,0-.16,0-.23,0-3.36.09-6.48,2.23-7.65,5.6l-2.53,7.29-1.23,3.54c-1.1,3.18-.17,6.57,2.11,8.76Z"/>
      <path class="cls-6" d="m724.37,299.95c-1.56-1.2-12.98-9.72-28.24-6.36-14.81,3.26-21.61,15.15-22.6,16.95"/>
      <path class="cls-2" d="m452.87,666.78c.56-1.01,1.11-2.03,1.67-3.04-12.01-15.14-32.78-37.39-64.51-55.56-23.39-13.4-45.22-20.29-61.43-24.01,9.81-9.35,21.16-21.91,31.78-38.13,6.9-10.55,12.18-20.63,16.24-29.66"/>
      <path class="cls-11" d="m350.79,350.68c7.59,15.11,18.19,25.07,26.66,31.23,3.05-1.38,6.08-2.61,9.09-3.71-1.39-6.68,3.3-13.19,10.19-13.89l53.23-5.36c.27-.03.54,0,.79.1l1.94.71-.79,14.66c3.92,2.96,8.61,6.16,14.07,9.29,8.32-2.8,16.42-6.24,24.18-10.25,5.85-3.02,11.51-6.36,16.89-9.96,3.66-2.46,7.19-5.03,10.58-7.72,1.12-.89,5.04-4.24,10.4-9.76.04-.04.08-.09.13-.14.42-.44.85-.88,1.29-1.35,14.31-15.08,37.24-44.2,45.98-82.69.54-2.38,1.03-4.79,1.45-7.24.44-2.51.81-5.05,1.12-7.63.65-5.5.99-11.16.96-16.97h0c0-.39,0-.76,0-1.14-.04-2.97-.23-9.61-1.65-17.96-2.65-15.56-9.57-37.05-27.76-51.79-33.02-26.75-76.33-12.99-88.92-8.3-1.28.47-2.23.85-2.71,1.05-33.07,13.42-42.55,40.86-66.93,76.61-30.46,44.68-43.09,42.03-47.93,67.82-5.23,27.81,5.77,50.47,7.75,54.4Z"/>
      <rect class="cls-11" x="412.61" y="108.21" width="43.21" height="43.21" rx="21.61" ry="21.61" transform="translate(860.83 282.81) rotate(-176.92)"/>
      <g>
        <path class="cls-9" d="m490.84,339.72c6.45,2.11,51.29,16.11,78.41-6.78,39.18-33.06,18.74-123.96-28.23-144.1-20.51-8.79-55.06-7.95-72.63,13.05-7.04,8.42-9.54,17.91-10.53,24.32l32.98,113.51Z"/>
        <path class="cls-9" d="m523.19,427.28l3.41-11.79c-1.15,3.88-2.29,7.8-3.41,11.79Z"/>
        <path class="cls-9" d="m445.9,270.22c4.6,2.41,9.01,2.68,11.48,2.65l-4.68,86.9-.79,14.66c3.92,2.96,8.61,6.16,14.07,9.29,7.57,4.33,16.61,8.51,27.12,11.67,13.15,3.95,24.99,5.24,34.29,5.47l.73-13.5.4-7.51c.6-11.23,1.21-22.48,1.81-33.71l-.15-.26h0s-.73-1.34-.73-1.34l-58.11-105.04c-.21-.47-4.45-9.6-12.7-12.58,0,0-.01,0-.01,0-.2-.07-.42-.14-.63-.2-.28-.09-.57-.17-.86-.25-.77-.19-1.57-.33-2.41-.4-11.39-1-21.28,10.79-21.85,22.22-.46,9.44,5.47,17.99,13.01,21.94Z"/>
      </g>
      <path class="cls-7" d="m530.35,345.86c-6.1.51-15.58.53-26.47-2.7-7.92-2.35-14.12-5.68-18.49-8.49,4.34,8.17,11.44,19.2,22.72,29.84,7.22,6.81,14.36,11.77,20.42,15.34.61-11.33,1.22-22.66,1.83-33.99Z"/>
      <path class="cls-11" d="m546.43,188.54c-7.81,8.19-22.92,21.82-45.98,30.5-17.44,6.57-32.96,7.86-43.19,7.89-1.85-6.67-3.7-13.34-5.56-20.01l34.91-26.4,50.32.45,9.49,7.58Z"/>
      <g>
        <circle class="cls-4" cx="587.76" cy="236.79" r="27.92"/>
        <circle class="cls-4" cx="518.19" cy="233.04" r="27.92"/>
        <line class="cls-4" x1="457.41" y1="224.18" x2="490.54" y2="229.14"/>
        <path class="cls-4" d="m560.11,232.89c-.9-.68-3.24-2.23-6.63-2.48-3.65-.26-6.33,1.16-7.28,1.73"/>
      </g>
      <path class="cls-3" d="m547.33,285.81l15.66.84c2.61.14,4.64-2.26,4.06-4.81l-10.27-45.46c-1.35-4.86-1.84-5.78-1.84-5.78"/>
      <rect class="cls-8" x="573.89" y="246.96" width="7.75" height="7.75" rx="3.87" ry="3.87" transform="translate(1141.19 532.39) rotate(-176.92)"/>
      <rect class="cls-8" x="524.24" y="244.29" width="7.75" height="7.75" rx="3.87" ry="3.87" transform="translate(1042.11 524.38) rotate(-176.92)"/>
      <path class="cls-8" d="m548.33,303.36c-8.03,4.27-17.72,3.13-24.04-2.69-8.21-7.57-6.12-18.83-6-19.42,3.79,4.08,8.78,8.76,15.13,13.3,5.35,3.83,10.47,6.68,14.91,8.82Z"/>
      <path class="cls-8" d="m493.83,595.29c-13.11-31.78-26.51-71.73-35.67-118.81-7.42-38.16-10.44-72.81-11.23-102.41-.03-1.3,1.3-2.18,2.49-1.66,13.13,5.81,28.33,11.58,45.45,16.51,13.23,3.81,25.69,6.56,37.11,8.56,1.04.18,1.69,1.23,1.39,2.24-8.85,29.72-17.24,62.44-24.38,97.94-6.99,34.71-11.84,67.41-15.17,97.63Z"/>
      <path class="cls-14" d="m386.54,378.2c.04.16.07.33.07.33.03.11.05.22.08.33l2.74,10.2h0s23.33,86.77,23.33,86.77c2.5,9.3,9.43,16.77,18.51,19.98l7.8,2.75c1.29.45,1.6,2.16.54,3.04l-3.93,3.26c-7.18,5.95-10.05,15.68-7.24,24.57l40.54,128.31c4.22-8.77,8.44-17.54,12.65-26.32,2.14-3.89,6.81-5.66,10.94-4.17,4.22,1.52,6.69,6,5.73,10.42l-9.38,29.7c.37.04,1.1.12,2.08.3l20.97-56.81,3.65-9.9c1.46-3.94,5.2-6.38,9.17-6.38.66,0,1.33.06,2,.2l18.51-39.92c4.83-10.44,1.96-22.83-6.97-30.07l-.71-.59c-1.24-1-.64-2.99.95-3.15,6.8-.66,13.01-3.45,17.9-7.74,4.89-4.29,8.46-10.1,9.98-16.76l10.7-46.74.92-4c1.89-8.28-.93-16.93-7.35-22.49-4.37-4.94-9.39-10.12-15.12-15.36-8.81-8.05-17.45-14.52-25.27-19.68-.07-.06-.16-.13-.26-.19-.09-.06-.19-.1-.29-.14l-1.67-.61-.73,13.5-.79,14.63-3.41,11.79c-6.08,20.44-11.77,42.86-16.54,67.11-6.96,35.34-10.69,68.03-12.46,97.19-12.59-28.11-25.99-65.08-34.43-109.69-6.74-35.6-8.7-67.52-8.57-93.93l.73-13.53.79-14.66-1.94-.71c-.25-.09-.52-.13-.79-.1-7.11-.42-15.28-.46-24.28.31-11.13.95-20.87,2.9-28.96,5.05-.85.09-4.86.62-7.76,4.13,0,0-3.6,4.36-2.43,9.76Z"/>
    </g>
  </g>
</svg>