<svg xmlns="http://www.w3.org/2000/svg" xmlns:xlink="http://www.w3.org/1999/xlink" width="1080" zoomAndPan="magnify" viewBox="0 0 810 809.999993" height="1080" preserveAspectRatio="xMidYMid meet" version="1.0"><defs><clipPath id="f60c8d7cf5"><path d="M 135.078125 198 L 675.078125 198 L 675.078125 612 L 135.078125 612 Z M 135.078125 198 " clip-rule="nonzero"/></clipPath></defs><path fill="#000000" d="M 361.171875 372.886719 L 361.171875 295.582031 C 361.171875 281.824219 350.03125 270.6875 336.269531 270.6875 L 258.9375 270.6875 C 256.972656 270.6875 254.351562 271.34375 252.382812 271.34375 C 245.175781 273.308594 238.621094 278.550781 235.347656 285.757812 L 193.402344 376.816406 C 190.128906 383.367188 190.78125 391.226562 194.714844 397.125 C 198.648438 403.019531 205.199219 406.949219 212.410156 406.949219 L 325.78125 406.949219 C 346.097656 407.605469 361.171875 391.882812 361.171875 372.886719 Z M 206.511719 390.574219 C 205.199219 387.953125 204.542969 385.332031 205.855469 382.710938 L 247.796875 291.652344 C 249.761719 287.066406 254.351562 283.792969 259.59375 283.792969 L 336.921875 283.792969 C 343.476562 283.792969 348.71875 289.03125 348.71875 295.582031 L 348.71875 373.539062 C 348.71875 385.332031 338.890625 394.503906 327.75 394.503906 L 213.0625 394.503906 C 210.441406 394.503906 207.820312 393.195312 206.511719 390.574219 Z M 206.511719 390.574219 " fill-opacity="1" fill-rule="nonzero"/><path fill="#000000" d="M 474.542969 389.917969 L 500.757812 389.917969 L 500.757812 349.957031 L 537.457031 349.957031 L 537.457031 323.753906 L 500.757812 323.753906 L 500.757812 287.722656 L 474.542969 287.722656 L 474.542969 323.753906 L 439.15625 323.753906 L 439.15625 349.957031 L 474.542969 349.957031 Z M 474.542969 389.917969 " fill-opacity="1" fill-rule="nonzero"/><g clip-path="url(#f60c8d7cf5)"><path fill="#000000" d="M 655.417969 496.046875 L 641 496.046875 L 641 272 C 641 262.171875 637.070312 253 630.515625 246.449219 C 623.960938 239.898438 614.789062 235.96875 604.957031 235.96875 L 325.78125 235.96875 L 325.78125 224.175781 C 325.78125 209.765625 313.988281 198.628906 300.222656 198.628906 L 274.667969 198.628906 C 260.25 198.628906 249.109375 210.417969 249.109375 224.175781 L 249.109375 235.96875 L 247.140625 235.96875 C 236 235.96875 225.515625 242.519531 220.273438 252.347656 L 197.335938 298.203125 L 156.703125 375.507812 C 154.082031 380.746094 152.773438 386.644531 152.773438 392.539062 L 152.773438 495.390625 C 142.941406 496.699219 135.078125 504.5625 135.078125 515.042969 C 135.078125 526.179688 143.597656 534.695312 154.738281 534.695312 L 215.683594 534.695312 C 215.683594 536.007812 215.683594 537.972656 215.683594 539.9375 C 215.683594 579.242188 247.796875 611.34375 287.117188 611.34375 C 326.4375 611.34375 358.550781 579.242188 358.550781 539.9375 C 358.550781 537.972656 358.550781 536.660156 358.550781 534.695312 L 435.222656 534.695312 C 435.222656 536.007812 435.222656 537.972656 435.222656 539.9375 C 435.222656 579.242188 467.335938 611.34375 506.65625 611.34375 C 545.976562 611.34375 578.089844 579.242188 578.089844 539.9375 C 578.089844 537.972656 578.089844 536.660156 578.089844 534.695312 L 655.417969 534.695312 C 666.558594 534.695312 675.078125 526.179688 675.078125 515.042969 C 675.078125 503.90625 665.902344 496.046875 655.417969 496.046875 Z M 655.417969 522.25 L 576.121094 522.25 C 574.8125 517.664062 573.5 513.078125 571.535156 509.148438 L 655.417969 509.148438 C 659.351562 509.148438 661.972656 511.765625 661.972656 515.699219 C 661.972656 519.628906 658.695312 522.25 655.417969 522.25 Z M 565.636719 539.9375 C 565.636719 572.035156 539.421875 598.242188 507.3125 598.242188 C 475.199219 598.242188 448.988281 572.035156 448.988281 539.9375 C 448.988281 537.972656 448.988281 536.660156 448.988281 534.695312 C 448.988281 532.730469 449.640625 530.109375 449.640625 528.144531 C 450.296875 526.179688 450.953125 523.558594 451.609375 521.59375 C 452.917969 517.007812 455.539062 512.421875 457.507812 508.492188 C 458.816406 506.527344 460.78125 503.90625 462.09375 501.941406 C 464.058594 499.320312 466.023438 497.355469 468.648438 495.390625 C 479.132812 486.875 492.238281 480.976562 506.65625 480.976562 C 521.074219 480.976562 534.179688 486.21875 544.667969 495.390625 C 547.289062 497.355469 549.253906 499.320312 551.21875 501.941406 C 553.1875 503.90625 554.496094 506.527344 555.808594 508.492188 C 558.429688 512.421875 560.394531 517.007812 561.703125 521.59375 C 562.359375 523.558594 563.015625 526.179688 563.671875 528.144531 C 564.328125 530.109375 564.328125 532.730469 564.328125 534.695312 C 564.980469 536.660156 565.636719 537.972656 565.636719 539.9375 Z M 346.097656 539.9375 C 346.097656 572.035156 319.882812 598.242188 287.773438 598.242188 C 255.660156 598.242188 229.449219 572.035156 229.449219 539.9375 C 229.449219 537.972656 229.449219 536.660156 229.449219 534.695312 C 229.449219 532.730469 230.101562 530.109375 230.101562 528.144531 C 230.757812 526.179688 231.414062 523.558594 232.070312 521.59375 C 233.378906 517.007812 236 512.421875 237.96875 508.492188 C 239.277344 506.527344 241.242188 503.90625 242.554688 501.941406 C 244.519531 499.320312 246.488281 497.355469 249.109375 495.390625 C 259.59375 486.875 272.699219 480.976562 287.117188 480.976562 C 301.535156 480.976562 314.640625 486.21875 325.128906 495.390625 C 327.75 497.355469 329.714844 499.320312 331.679688 501.941406 C 333.648438 503.90625 334.957031 506.527344 336.269531 508.492188 C 338.890625 512.421875 340.855469 517.007812 342.167969 521.59375 C 342.820312 523.558594 343.476562 526.179688 344.132812 528.144531 C 344.789062 530.109375 344.789062 532.730469 344.789062 534.695312 C 345.441406 536.660156 346.097656 537.972656 346.097656 539.9375 Z M 171.121094 522.25 L 155.394531 522.25 C 151.460938 522.25 148.839844 519.628906 148.839844 515.699219 C 148.839844 512.421875 151.460938 509.800781 154.738281 509.148438 C 154.738281 509.148438 154.738281 509.148438 155.394531 509.148438 L 223.550781 509.148438 C 221.582031 513.078125 219.617188 517.664062 218.960938 522.25 Z M 165.878906 393.195312 C 165.878906 389.261719 166.535156 385.332031 168.5 382.058594 L 209.132812 304.753906 L 232.070312 258.898438 C 234.691406 253 240.589844 249.726562 247.140625 249.726562 L 604.957031 249.726562 C 610.855469 249.726562 616.753906 252.347656 621.339844 256.277344 C 625.929688 260.207031 627.894531 266.105469 627.894531 272.65625 L 627.894531 496.046875 L 563.015625 496.046875 C 549.910156 479.667969 529.59375 468.53125 506.65625 468.53125 C 483.71875 468.53125 463.402344 479.011719 450.296875 496.046875 L 343.476562 496.046875 C 330.371094 479.667969 310.054688 468.53125 287.117188 468.53125 C 264.179688 468.53125 243.863281 479.011719 230.757812 496.046875 L 165.878906 496.046875 Z M 351.996094 509.148438 L 443.089844 509.148438 C 441.121094 513.078125 439.15625 517.664062 438.5 522.25 L 356.582031 522.25 C 355.273438 517.664062 353.960938 513.078125 351.996094 509.148438 Z M 262.214844 224.175781 C 262.214844 216.972656 268.113281 211.730469 274.667969 211.730469 L 300.222656 211.730469 C 307.433594 211.730469 312.675781 217.625 312.675781 224.175781 L 312.675781 235.96875 L 262.214844 235.96875 Z M 262.214844 224.175781 " fill-opacity="1" fill-rule="nonzero"/></g><path fill="#000000" d="M 322.507812 528.800781 C 321.851562 526.835938 320.539062 524.214844 319.882812 522.25 C 316.609375 517.007812 312.675781 512.421875 307.433594 509.148438 C 301.535156 505.214844 294.980469 503.25 287.773438 503.25 C 280.5625 503.25 274.011719 505.214844 268.113281 509.148438 C 262.871094 512.421875 258.9375 517.007812 255.660156 522.25 C 254.351562 524.214844 253.695312 526.835938 253.039062 528.800781 C 252.382812 530.765625 251.730469 533.386719 251.730469 535.351562 C 251.730469 536.660156 251.074219 538.625 251.074219 540.59375 C 251.074219 560.898438 267.457031 577.277344 287.773438 577.277344 C 308.089844 577.277344 324.472656 560.898438 324.472656 540.59375 C 324.472656 538.625 324.472656 537.316406 323.816406 535.351562 C 323.816406 532.730469 323.160156 530.765625 322.507812 528.800781 Z M 287.117188 563.519531 C 274.011719 563.519531 263.523438 553.039062 263.523438 539.9375 C 263.523438 537.972656 263.523438 536.660156 264.179688 534.695312 C 264.835938 532.074219 265.492188 530.109375 266.800781 528.144531 C 268.113281 525.523438 270.078125 523.558594 272.042969 521.59375 C 275.976562 518.320312 281.21875 515.699219 287.117188 515.699219 C 293.015625 515.699219 298.257812 517.664062 302.191406 521.59375 C 304.15625 523.558594 306.121094 525.523438 307.433594 528.144531 C 308.742188 530.109375 309.398438 532.074219 310.054688 534.695312 C 310.710938 536.007812 310.710938 537.972656 310.710938 539.9375 C 311.363281 553.039062 300.222656 563.519531 287.117188 563.519531 Z M 287.117188 563.519531 " fill-opacity="1" fill-rule="nonzero"/><path fill="#000000" d="M 542.042969 528.800781 C 541.390625 526.835938 540.078125 524.214844 539.421875 522.25 C 536.148438 517.007812 532.214844 512.421875 526.972656 509.148438 C 521.074219 505.214844 514.519531 503.25 507.3125 503.25 C 500.101562 503.25 493.550781 505.214844 487.652344 509.148438 C 482.410156 512.421875 478.476562 517.007812 475.199219 522.25 C 473.890625 524.214844 473.234375 526.835938 472.578125 528.800781 C 471.921875 530.765625 471.269531 533.386719 471.269531 535.351562 C 471.269531 536.660156 470.613281 538.625 470.613281 540.59375 C 470.613281 560.898438 486.996094 577.277344 507.3125 577.277344 C 527.628906 577.277344 544.011719 560.898438 544.011719 540.59375 C 544.011719 538.625 544.011719 537.316406 543.355469 535.351562 C 543.355469 532.730469 542.699219 530.765625 542.042969 528.800781 Z M 483.0625 539.9375 C 483.0625 537.972656 483.0625 536.660156 483.71875 534.695312 C 484.375 532.074219 485.03125 530.109375 486.339844 528.144531 C 487.652344 525.523438 489.617188 523.558594 491.582031 521.59375 C 495.515625 518.320312 500.757812 515.699219 506.65625 515.699219 C 512.554688 515.699219 517.796875 517.664062 521.730469 521.59375 C 523.695312 523.558594 525.660156 525.523438 526.972656 528.144531 C 528.28125 530.109375 528.9375 532.074219 529.59375 534.695312 C 530.25 536.007812 530.25 537.972656 530.25 539.9375 C 530.25 553.039062 519.761719 563.519531 506.65625 563.519531 C 493.550781 563.519531 483.0625 553.039062 483.0625 539.9375 Z M 483.0625 539.9375 " fill-opacity="1" fill-rule="nonzero"/><path fill="#000000" d="M 315.953125 380.089844 L 234.691406 380.089844 C 232.070312 380.089844 230.101562 378.78125 228.792969 376.816406 C 227.480469 374.851562 227.480469 372.230469 228.136719 369.609375 L 237.96875 347.992188 C 238.621094 346.027344 237.96875 344.714844 236.65625 343.40625 C 234.691406 342.75 233.378906 343.40625 232.070312 344.714844 L 222.238281 366.335938 C 220.273438 370.921875 220.929688 375.507812 222.894531 379.4375 C 225.515625 383.367188 230.101562 385.988281 234.691406 385.988281 L 315.953125 385.988281 C 317.917969 385.988281 319.230469 384.675781 319.230469 382.710938 C 319.230469 380.746094 317.917969 380.089844 315.953125 380.089844 Z M 315.953125 380.089844 " fill-opacity="1" fill-rule="nonzero"/></svg>