<svg xmlns="http://www.w3.org/2000/svg" xmlns:xlink="http://www.w3.org/1999/xlink" width="1080" zoomAndPan="magnify" viewBox="0 0 810 809.999993" height="1080" preserveAspectRatio="xMidYMid meet" version="1.0"><defs><clipPath id="0e935a71b3"><path d="M 109 207 L 524 207 L 524 715.15625 L 109 715.15625 Z M 109 207 " clip-rule="nonzero"/></clipPath><clipPath id="b6ca66ef77"><path d="M 344 94.90625 L 575 94.90625 L 575 544 L 344 544 Z M 344 94.90625 " clip-rule="nonzero"/></clipPath></defs><path fill="#000000" d="M 662.6875 180.222656 C 657.574219 164.085938 640.390625 155.179688 624.304688 160.332031 L 586.132812 172.558594 L 586.132812 236.933594 L 642.886719 218.761719 C 658.945312 213.613281 667.828125 196.355469 662.6875 180.222656 Z M 662.6875 180.222656 " fill-opacity="1" fill-rule="nonzero"/><g clip-path="url(#0e935a71b3)"><path fill="#000000" d="M 329.375 506.757812 L 329.375 474.683594 L 329.273438 474.628906 C 329.273438 474.628906 329.335938 474.230469 329.375 473.425781 L 329.375 468.988281 C 328.988281 459.015625 326.046875 435.976562 309.386719 400.722656 C 300.925781 382.824219 285.085938 366.972656 277.242188 359.804688 L 325.328125 263.460938 C 334.347656 244 325.992188 220.878906 306.648438 211.789062 C 287.304688 202.726562 280.804688 209.949219 269.0625 230.585938 L 190.867188 359.640625 L 190.472656 360.5625 L 177.066406 382.402344 L 204.953125 555.316406 L 109.75 715.15625 L 347.871094 715.15625 L 394.558594 637.5625 C 415.347656 633.863281 461.371094 620.613281 511.265625 573.507812 C 516.179688 568.871094 519.660156 563.78125 523.882812 557.316406 L 377.78125 557.316406 C 350.472656 557.316406 329.375 534.238281 329.375 506.757812 Z M 329.375 506.757812 " fill-opacity="1" fill-rule="nonzero"/></g><path fill="#000000" d="M 628.378906 264.960938 L 586.132812 264.960938 L 586.132812 325.011719 L 628.378906 325.011719 C 644.820312 325.011719 658.148438 311.558594 658.148438 294.980469 C 658.148438 278.40625 644.824219 264.960938 628.378906 264.960938 Z M 628.378906 264.960938 " fill-opacity="1" fill-rule="nonzero"/><path fill="#000000" d="M 611.464844 337.019531 L 586.140625 337.019531 L 586.140625 397.070312 L 611.464844 397.070312 C 628.402344 397.070312 642.148438 383.625 642.148438 367.046875 C 642.148438 350.476562 628.402344 337.019531 611.464844 337.019531 Z M 611.464844 337.019531 " fill-opacity="1" fill-rule="nonzero"/><path fill="#000000" d="M 595.894531 409.085938 L 586.132812 409.085938 L 586.132812 469.136719 L 595.894531 469.136719 C 612.59375 469.136719 626.144531 455.679688 626.144531 439.109375 C 626.144531 422.535156 612.601562 409.085938 595.894531 409.085938 Z M 595.894531 409.085938 " fill-opacity="1" fill-rule="nonzero"/><g clip-path="url(#b6ca66ef77)"><path fill="#000000" d="M 555.25 479.507812 L 364.9375 479.507812 L 364.9375 128.839844 L 555.25 128.839844 Z M 459.109375 523.566406 C 451.96875 523.566406 446.191406 517.71875 446.191406 510.539062 C 446.191406 503.347656 451.96875 497.527344 459.109375 497.527344 C 466.234375 497.527344 472.015625 503.351562 472.015625 510.539062 C 472.015625 517.722656 466.234375 523.566406 459.109375 523.566406 Z M 440.25 105.820312 L 481.320312 105.820312 C 484.058594 105.820312 486.300781 108.054688 486.300781 110.816406 C 486.300781 113.578125 484.058594 115.820312 481.320312 115.820312 L 440.25 115.820312 C 437.503906 115.820312 435.289062 113.578125 435.289062 110.816406 C 435.289062 108.0625 437.511719 105.820312 440.25 105.820312 Z M 538.386719 94.808594 L 379.820312 94.808594 C 360.09375 94.808594 344.09375 110.941406 344.09375 130.835938 L 344.09375 507.152344 C 344.09375 527.070312 360.09375 543.207031 379.820312 543.207031 L 538.386719 543.207031 C 558.128906 543.207031 574.132812 527.070312 574.132812 507.152344 L 574.132812 130.835938 C 574.132812 110.941406 558.109375 94.808594 538.386719 94.808594 Z M 538.386719 94.808594 " fill-opacity="1" fill-rule="evenodd"/></g></svg>