<svg xmlns="http://www.w3.org/2000/svg" xmlns:xlink="http://www.w3.org/1999/xlink" width="1080" zoomAndPan="magnify" viewBox="0 0 810 809.999993" height="1080" preserveAspectRatio="xMidYMid meet" version="1.0"><defs><clipPath id="9a2e92ec8b"><path d="M 141.507812 198 L 668.757812 198 L 668.757812 611 L 141.507812 611 Z M 141.507812 198 " clip-rule="nonzero"/></clipPath></defs><path fill="#000000" d="M 345.914062 475.917969 L 371.144531 475.917969 L 371.144531 501.117188 C 371.144531 501.734375 371.207031 502.34375 371.324219 502.949219 C 371.445312 503.554688 371.625 504.144531 371.863281 504.714844 C 372.097656 505.285156 372.386719 505.828125 372.730469 506.339844 C 373.074219 506.851562 373.464844 507.328125 373.902344 507.765625 C 374.339844 508.203125 374.816406 508.589844 375.328125 508.933594 C 375.84375 509.277344 376.386719 509.566406 376.957031 509.804688 C 377.527344 510.039062 378.117188 510.21875 378.722656 510.339844 C 379.328125 510.457031 379.941406 510.519531 380.558594 510.519531 L 429.707031 510.519531 C 430.324219 510.519531 430.9375 510.457031 431.542969 510.339844 C 432.152344 510.21875 432.738281 510.039062 433.3125 509.804688 C 433.882812 509.566406 434.425781 509.277344 434.9375 508.933594 C 435.453125 508.589844 435.929688 508.203125 436.363281 507.765625 C 436.800781 507.328125 437.191406 506.851562 437.535156 506.339844 C 437.878906 505.828125 438.167969 505.285156 438.40625 504.714844 C 438.644531 504.144531 438.820312 503.554688 438.941406 502.949219 C 439.0625 502.34375 439.121094 501.734375 439.121094 501.117188 L 439.121094 475.917969 L 464.355469 475.917969 C 464.972656 475.917969 465.585938 475.855469 466.191406 475.734375 C 466.796875 475.613281 467.386719 475.4375 467.957031 475.199219 C 468.53125 474.964844 469.070312 474.675781 469.585938 474.332031 C 470.101562 473.988281 470.574219 473.597656 471.011719 473.164062 C 471.449219 472.726562 471.839844 472.25 472.183594 471.738281 C 472.527344 471.222656 472.816406 470.683594 473.054688 470.113281 C 473.289062 469.542969 473.46875 468.953125 473.589844 468.347656 C 473.710938 467.742188 473.769531 467.128906 473.769531 466.511719 L 473.769531 417.429688 C 473.769531 416.8125 473.710938 416.203125 473.589844 415.597656 C 473.46875 414.988281 473.289062 414.402344 473.054688 413.832031 C 472.816406 413.261719 472.527344 412.71875 472.183594 412.207031 C 471.839844 411.691406 471.449219 411.21875 471.011719 410.78125 C 470.574219 410.34375 470.101562 409.953125 469.585938 409.613281 C 469.070312 409.269531 468.53125 408.980469 467.957031 408.742188 C 467.386719 408.507812 466.796875 408.328125 466.191406 408.207031 C 465.585938 408.085938 464.972656 408.027344 464.355469 408.027344 L 439.121094 408.027344 L 439.121094 382.828125 C 439.121094 382.210938 439.0625 381.597656 438.941406 380.992188 C 438.820312 380.386719 438.644531 379.800781 438.40625 379.230469 C 438.167969 378.660156 437.878906 378.117188 437.535156 377.601562 C 437.191406 377.089844 436.800781 376.613281 436.363281 376.179688 C 435.929688 375.742188 435.453125 375.351562 434.9375 375.007812 C 434.425781 374.667969 433.882812 374.375 433.3125 374.140625 C 432.738281 373.902344 432.152344 373.726562 431.542969 373.605469 C 430.9375 373.484375 430.324219 373.425781 429.707031 373.425781 L 380.558594 373.425781 C 379.941406 373.425781 379.328125 373.484375 378.722656 373.605469 C 378.117188 373.726562 377.527344 373.902344 376.957031 374.140625 C 376.386719 374.375 375.84375 374.667969 375.328125 375.007812 C 374.816406 375.351562 374.339844 375.742188 373.902344 376.179688 C 373.464844 376.613281 373.074219 377.089844 372.730469 377.601562 C 372.386719 378.117188 372.097656 378.660156 371.863281 379.230469 C 371.625 379.800781 371.445312 380.386719 371.324219 380.992188 C 371.207031 381.597656 371.144531 382.210938 371.144531 382.828125 L 371.144531 408.027344 L 345.914062 408.027344 C 345.292969 408.027344 344.683594 408.085938 344.074219 408.207031 C 343.46875 408.328125 342.878906 408.507812 342.308594 408.742188 C 341.738281 408.980469 341.195312 409.269531 340.683594 409.613281 C 340.167969 409.953125 339.691406 410.34375 339.253906 410.78125 C 338.816406 411.21875 338.425781 411.691406 338.085938 412.207031 C 337.742188 412.71875 337.449219 413.261719 337.214844 413.832031 C 336.976562 414.402344 336.800781 414.988281 336.679688 415.597656 C 336.558594 416.203125 336.496094 416.8125 336.496094 417.429688 L 336.496094 466.511719 C 336.496094 467.128906 336.558594 467.742188 336.679688 468.347656 C 336.800781 468.953125 336.976562 469.542969 337.214844 470.113281 C 337.449219 470.683594 337.742188 471.222656 338.085938 471.738281 C 338.425781 472.25 338.816406 472.726562 339.253906 473.164062 C 339.691406 473.597656 340.167969 473.988281 340.683594 474.332031 C 341.195312 474.675781 341.738281 474.964844 342.308594 475.199219 C 342.878906 475.4375 343.46875 475.613281 344.074219 475.734375 C 344.683594 475.855469 345.292969 475.917969 345.914062 475.917969 Z M 355.328125 426.832031 L 380.558594 426.832031 C 381.179688 426.832031 381.789062 426.773438 382.398438 426.652344 C 383.003906 426.53125 383.59375 426.355469 384.164062 426.117188 C 384.734375 425.882812 385.277344 425.589844 385.792969 425.25 C 386.304688 424.90625 386.78125 424.515625 387.21875 424.078125 C 387.65625 423.640625 388.046875 423.167969 388.390625 422.652344 C 388.730469 422.140625 389.023438 421.597656 389.257812 421.027344 C 389.496094 420.457031 389.675781 419.871094 389.792969 419.265625 C 389.914062 418.660156 389.976562 418.046875 389.976562 417.429688 L 389.976562 392.230469 L 420.292969 392.230469 L 420.292969 417.429688 C 420.292969 418.046875 420.351562 418.660156 420.472656 419.265625 C 420.59375 419.871094 420.773438 420.457031 421.007812 421.027344 C 421.246094 421.597656 421.535156 422.140625 421.878906 422.652344 C 422.222656 423.167969 422.613281 423.640625 423.050781 424.078125 C 423.488281 424.515625 423.960938 424.90625 424.476562 425.25 C 424.992188 425.589844 425.535156 425.882812 426.105469 426.117188 C 426.675781 426.355469 427.265625 426.53125 427.871094 426.652344 C 428.476562 426.773438 429.089844 426.832031 429.707031 426.832031 L 454.941406 426.832031 L 454.941406 457.109375 L 429.707031 457.109375 C 429.089844 457.109375 428.476562 457.171875 427.871094 457.292969 C 427.265625 457.410156 426.675781 457.589844 426.105469 457.828125 C 425.535156 458.0625 424.992188 458.351562 424.476562 458.695312 C 423.960938 459.039062 423.488281 459.429688 423.050781 459.863281 C 422.613281 460.300781 422.222656 460.777344 421.878906 461.289062 C 421.535156 461.804688 421.246094 462.34375 421.007812 462.914062 C 420.773438 463.484375 420.59375 464.074219 420.472656 464.679688 C 420.351562 465.285156 420.292969 465.894531 420.292969 466.511719 L 420.292969 491.714844 L 389.976562 491.714844 L 389.976562 466.511719 C 389.976562 465.894531 389.914062 465.285156 389.792969 464.679688 C 389.675781 464.074219 389.496094 463.484375 389.257812 462.914062 C 389.023438 462.34375 388.730469 461.800781 388.390625 461.289062 C 388.046875 460.777344 387.65625 460.300781 387.21875 459.863281 C 386.78125 459.429688 386.304688 459.039062 385.792969 458.695312 C 385.277344 458.351562 384.734375 458.0625 384.164062 457.828125 C 383.59375 457.589844 383.003906 457.410156 382.398438 457.292969 C 381.789062 457.171875 381.179688 457.109375 380.558594 457.109375 L 355.328125 457.109375 Z M 355.328125 426.832031 " fill-opacity="1" fill-rule="nonzero"/><g clip-path="url(#9a2e92ec8b)"><path fill="#000000" d="M 620.363281 273.378906 L 532.238281 273.378906 L 532.238281 236.613281 C 532.238281 235.351562 532.175781 234.097656 532.054688 232.84375 C 531.929688 231.589844 531.746094 230.34375 531.5 229.109375 C 531.253906 227.875 530.945312 226.652344 530.582031 225.449219 C 530.214844 224.242188 529.789062 223.058594 529.308594 221.894531 C 528.824219 220.730469 528.285156 219.59375 527.691406 218.484375 C 527.097656 217.371094 526.449219 216.292969 525.75 215.246094 C 525.046875 214.199219 524.296875 213.1875 523.496094 212.214844 C 522.699219 211.242188 521.851562 210.308594 520.960938 209.417969 C 520.070312 208.527344 519.136719 207.683594 518.160156 206.882812 C 517.183594 206.085938 516.171875 205.335938 515.125 204.636719 C 514.074219 203.9375 512.996094 203.289062 511.882812 202.695312 C 510.769531 202.101562 509.632812 201.5625 508.46875 201.082031 C 507.300781 200.601562 506.117188 200.175781 504.910156 199.808594 C 503.703125 199.445312 502.480469 199.140625 501.242188 198.894531 C 500.007812 198.648438 498.761719 198.464844 497.503906 198.339844 C 496.25 198.214844 494.992188 198.152344 493.730469 198.152344 L 316.539062 198.152344 C 315.277344 198.152344 314.019531 198.214844 312.761719 198.339844 C 311.507812 198.464844 310.261719 198.648438 309.023438 198.894531 C 307.789062 199.140625 306.566406 199.445312 305.359375 199.808594 C 304.152344 200.175781 302.964844 200.601562 301.800781 201.082031 C 300.636719 201.5625 299.496094 202.101562 298.382812 202.695312 C 297.273438 203.289062 296.191406 203.9375 295.144531 204.636719 C 294.09375 205.335938 293.082031 206.085938 292.109375 206.882812 C 291.132812 207.683594 290.199219 208.527344 289.308594 209.417969 C 288.417969 210.308594 287.570312 211.242188 286.769531 212.214844 C 285.96875 213.1875 285.21875 214.199219 284.519531 215.246094 C 283.816406 216.292969 283.171875 217.371094 282.574219 218.484375 C 281.980469 219.59375 281.441406 220.730469 280.960938 221.894531 C 280.476562 223.058594 280.054688 224.242188 279.6875 225.449219 C 279.320312 226.652344 279.015625 227.875 278.769531 229.109375 C 278.523438 230.34375 278.339844 231.589844 278.214844 232.84375 C 278.089844 234.097656 278.027344 235.351562 278.027344 236.613281 L 278.027344 273.378906 L 189.902344 273.378906 C 188.320312 273.378906 186.738281 273.460938 185.164062 273.617188 C 183.585938 273.777344 182.023438 274.011719 180.46875 274.320312 C 178.914062 274.632812 177.378906 275.019531 175.867188 275.480469 C 174.351562 275.941406 172.859375 276.476562 171.398438 277.082031 C 169.933594 277.6875 168.503906 278.367188 167.109375 279.113281 C 165.710938 279.859375 164.355469 280.671875 163.039062 281.550781 C 161.722656 282.429688 160.453125 283.371094 159.226562 284.375 C 158.003906 285.378906 156.832031 286.441406 155.710938 287.5625 C 154.589844 288.679688 153.527344 289.851562 152.523438 291.074219 C 151.515625 292.296875 150.574219 293.5625 149.695312 294.878906 C 148.8125 296.195312 148 297.550781 147.25 298.945312 C 146.503906 300.339844 145.824219 301.765625 145.21875 303.226562 C 144.609375 304.6875 144.074219 306.175781 143.613281 307.6875 C 143.152344 309.203125 142.765625 310.734375 142.453125 312.285156 C 142.144531 313.835938 141.910156 315.398438 141.75 316.972656 C 141.59375 318.546875 141.511719 320.125 141.507812 321.707031 L 141.507812 562.234375 C 141.511719 563.816406 141.59375 565.394531 141.75 566.96875 C 141.910156 568.542969 142.144531 570.105469 142.453125 571.65625 C 142.765625 573.207031 143.152344 574.742188 143.613281 576.253906 C 144.074219 577.769531 144.609375 579.253906 145.21875 580.714844 C 145.824219 582.175781 146.503906 583.605469 147.25 585 C 148 586.394531 148.8125 587.75 149.695312 589.0625 C 150.574219 590.378906 151.515625 591.648438 152.523438 592.871094 C 153.527344 594.09375 154.589844 595.265625 155.710938 596.382812 C 156.832031 597.5 158.003906 598.5625 159.226562 599.566406 C 160.453125 600.570312 161.722656 601.511719 163.039062 602.390625 C 164.355469 603.273438 165.710938 604.085938 167.109375 604.832031 C 168.503906 605.578125 169.933594 606.253906 171.398438 606.863281 C 172.859375 607.46875 174.351562 608.003906 175.867188 608.464844 C 177.378906 608.925781 178.914062 609.3125 180.46875 609.621094 C 182.023438 609.933594 183.585938 610.167969 185.164062 610.324219 C 186.738281 610.484375 188.320312 610.5625 189.902344 610.566406 L 620.363281 610.566406 C 621.949219 610.5625 623.527344 610.484375 625.105469 610.324219 C 626.683594 610.167969 628.246094 609.933594 629.800781 609.621094 C 631.351562 609.3125 632.886719 608.925781 634.402344 608.464844 C 635.917969 608.003906 637.40625 607.46875 638.871094 606.863281 C 640.332031 606.253906 641.761719 605.578125 643.160156 604.832031 C 644.554688 604.085938 645.914062 603.273438 647.230469 602.390625 C 648.546875 601.511719 649.816406 600.570312 651.039062 599.566406 C 652.265625 598.5625 653.4375 597.5 654.558594 596.382812 C 655.675781 595.265625 656.738281 594.09375 657.746094 592.871094 C 658.75 591.648438 659.695312 590.378906 660.574219 589.0625 C 661.453125 587.75 662.269531 586.394531 663.015625 585 C 663.765625 583.605469 664.441406 582.175781 665.050781 580.714844 C 665.65625 579.253906 666.191406 577.769531 666.652344 576.253906 C 667.117188 574.742188 667.503906 573.207031 667.8125 571.65625 C 668.125 570.105469 668.359375 568.542969 668.515625 566.96875 C 668.675781 565.394531 668.757812 563.816406 668.757812 562.234375 L 668.757812 321.707031 C 668.757812 320.125 668.675781 318.546875 668.515625 316.972656 C 668.359375 315.398438 668.125 313.835938 667.8125 312.285156 C 667.503906 310.734375 667.117188 309.203125 666.652344 307.6875 C 666.191406 306.175781 665.65625 304.6875 665.050781 303.226562 C 664.441406 301.765625 663.765625 300.339844 663.015625 298.945312 C 662.269531 297.550781 661.453125 296.195312 660.574219 294.878906 C 659.695312 293.5625 658.75 292.296875 657.746094 291.074219 C 656.738281 289.851562 655.675781 288.679688 654.558594 287.5625 C 653.4375 286.441406 652.265625 285.378906 651.039062 284.375 C 649.816406 283.371094 648.546875 282.429688 647.230469 281.550781 C 645.914062 280.671875 644.554688 279.859375 643.160156 279.113281 C 641.761719 278.367188 640.332031 277.6875 638.871094 277.082031 C 637.40625 276.476562 635.917969 275.941406 634.402344 275.480469 C 632.886719 275.019531 631.351562 274.632812 629.800781 274.320312 C 628.246094 274.011719 626.683594 273.777344 625.105469 273.617188 C 623.527344 273.460938 621.949219 273.378906 620.363281 273.378906 Z M 272.757812 311.648438 C 272.136719 311.648438 271.527344 311.707031 270.917969 311.828125 C 270.3125 311.949219 269.726562 312.125 269.152344 312.363281 C 268.582031 312.597656 268.039062 312.890625 267.527344 313.230469 C 267.011719 313.574219 266.535156 313.964844 266.097656 314.402344 C 265.660156 314.839844 265.273438 315.3125 264.929688 315.828125 C 264.585938 316.339844 264.292969 316.882812 264.058594 317.453125 C 263.820312 318.023438 263.644531 318.609375 263.523438 319.214844 C 263.402344 319.820312 263.339844 320.433594 263.339844 321.050781 L 263.339844 591.761719 L 235.660156 591.761719 L 235.660156 292.183594 L 528.097656 292.183594 L 528.097656 556.78125 C 528.097656 557.398438 528.15625 558.011719 528.277344 558.617188 C 528.398438 559.222656 528.578125 559.808594 528.8125 560.378906 C 529.050781 560.949219 529.339844 561.492188 529.683594 562.003906 C 530.027344 562.519531 530.417969 562.992188 530.855469 563.429688 C 531.289062 563.867188 531.765625 564.257812 532.28125 564.597656 C 532.792969 564.941406 533.335938 565.230469 533.910156 565.46875 C 534.480469 565.703125 535.066406 565.882812 535.675781 566.003906 C 536.28125 566.125 536.894531 566.183594 537.511719 566.183594 C 538.128906 566.183594 538.742188 566.125 539.347656 566.003906 C 539.953125 565.882812 540.542969 565.703125 541.113281 565.46875 C 541.6875 565.230469 542.226562 564.941406 542.742188 564.597656 C 543.257812 564.257812 543.730469 563.867188 544.167969 563.429688 C 544.605469 562.992188 544.996094 562.519531 545.339844 562.003906 C 545.683594 561.492188 545.972656 560.949219 546.210938 560.378906 C 546.445312 559.808594 546.625 559.222656 546.746094 558.617188 C 546.867188 558.011719 546.925781 557.398438 546.925781 556.78125 L 546.925781 292.183594 L 574.605469 292.183594 L 574.605469 591.761719 L 282.171875 591.761719 L 282.171875 321.050781 C 282.171875 320.433594 282.113281 319.820312 281.992188 319.214844 C 281.871094 318.609375 281.691406 318.023438 281.453125 317.453125 C 281.21875 316.882812 280.929688 316.339844 280.585938 315.828125 C 280.242188 315.3125 279.851562 314.839844 279.414062 314.402344 C 278.976562 313.964844 278.5 313.574219 277.988281 313.230469 C 277.472656 312.890625 276.929688 312.597656 276.359375 312.363281 C 275.789062 312.125 275.199219 311.949219 274.59375 311.828125 C 273.988281 311.707031 273.375 311.648438 272.757812 311.648438 Z M 296.859375 236.425781 C 296.863281 235.78125 296.898438 235.140625 296.960938 234.5 C 297.027344 233.863281 297.125 233.226562 297.253906 232.597656 C 297.378906 231.964844 297.539062 231.34375 297.726562 230.730469 C 297.917969 230.117188 298.132812 229.511719 298.382812 228.917969 C 298.628906 228.324219 298.90625 227.746094 299.210938 227.179688 C 299.515625 226.613281 299.847656 226.0625 300.203125 225.527344 C 300.5625 224.992188 300.945312 224.480469 301.355469 223.980469 C 301.761719 223.484375 302.195312 223.011719 302.648438 222.554688 C 303.105469 222.101562 303.582031 221.667969 304.078125 221.261719 C 304.578125 220.851562 305.09375 220.46875 305.625 220.113281 C 306.160156 219.753906 306.710938 219.425781 307.28125 219.121094 C 307.847656 218.816406 308.425781 218.539062 309.019531 218.292969 C 309.617188 218.046875 310.21875 217.828125 310.835938 217.640625 C 311.449219 217.449219 312.074219 217.292969 312.703125 217.164062 C 313.335938 217.039062 313.972656 216.941406 314.613281 216.875 C 315.25 216.808594 315.894531 216.773438 316.539062 216.773438 L 493.730469 216.773438 C 494.375 216.773438 495.015625 216.808594 495.65625 216.875 C 496.296875 216.941406 496.933594 217.039062 497.5625 217.164062 C 498.195312 217.292969 498.816406 217.449219 499.433594 217.640625 C 500.046875 217.828125 500.652344 218.046875 501.246094 218.292969 C 501.839844 218.539062 502.421875 218.816406 502.988281 219.121094 C 503.554688 219.425781 504.105469 219.753906 504.640625 220.113281 C 505.175781 220.46875 505.691406 220.851562 506.1875 221.261719 C 506.6875 221.667969 507.164062 222.101562 507.617188 222.554688 C 508.074219 223.011719 508.503906 223.484375 508.914062 223.980469 C 509.320312 224.480469 509.707031 224.992188 510.0625 225.527344 C 510.421875 226.0625 510.753906 226.613281 511.058594 227.179688 C 511.363281 227.746094 511.636719 228.324219 511.886719 228.917969 C 512.132812 229.511719 512.351562 230.117188 512.539062 230.730469 C 512.730469 231.34375 512.886719 231.964844 513.015625 232.597656 C 513.144531 233.226562 513.238281 233.863281 513.304688 234.5 C 513.371094 235.140625 513.40625 235.78125 513.410156 236.425781 L 513.410156 273.191406 L 296.859375 273.191406 Z M 160.339844 562.234375 L 160.339844 321.707031 C 160.34375 320.742188 160.394531 319.777344 160.488281 318.816406 C 160.585938 317.855469 160.730469 316.902344 160.921875 315.953125 C 161.113281 315.007812 161.351562 314.074219 161.632812 313.148438 C 161.917969 312.222656 162.242188 311.316406 162.613281 310.425781 C 162.988281 309.53125 163.402344 308.660156 163.859375 307.808594 C 164.316406 306.957031 164.8125 306.128906 165.351562 305.328125 C 165.886719 304.523438 166.464844 303.75 167.078125 303.003906 C 167.691406 302.257812 168.339844 301.542969 169.027344 300.859375 C 169.710938 300.175781 170.425781 299.527344 171.171875 298.914062 C 171.921875 298.300781 172.695312 297.726562 173.5 297.1875 C 174.304688 296.652344 175.132812 296.152344 175.984375 295.695312 C 176.839844 295.242188 177.710938 294.828125 178.605469 294.457031 C 179.496094 294.085938 180.40625 293.757812 181.332031 293.476562 C 182.257812 293.195312 183.195312 292.957031 184.140625 292.765625 C 185.089844 292.574219 186.046875 292.429688 187.007812 292.335938 C 187.96875 292.238281 188.9375 292.1875 189.902344 292.183594 L 216.832031 292.183594 L 216.832031 591.761719 L 189.902344 591.761719 C 188.9375 591.757812 187.96875 591.707031 187.007812 591.609375 C 186.046875 591.511719 185.089844 591.367188 184.140625 591.175781 C 183.195312 590.988281 182.257812 590.75 181.332031 590.46875 C 180.40625 590.183594 179.496094 589.859375 178.605469 589.488281 C 177.710938 589.117188 176.839844 588.703125 175.984375 588.246094 C 175.132812 587.789062 174.304688 587.292969 173.5 586.753906 C 172.695312 586.21875 171.921875 585.644531 171.171875 585.03125 C 170.425781 584.417969 169.710938 583.769531 169.027344 583.085938 C 168.339844 582.402344 167.691406 581.6875 167.078125 580.941406 C 166.464844 580.195312 165.886719 579.417969 165.351562 578.617188 C 164.8125 577.8125 164.316406 576.984375 163.859375 576.132812 C 163.402344 575.28125 162.988281 574.410156 162.613281 573.519531 C 162.242188 572.628906 161.917969 571.71875 161.632812 570.796875 C 161.351562 569.871094 161.113281 568.9375 160.921875 567.988281 C 160.730469 567.042969 160.585938 566.085938 160.488281 565.125 C 160.394531 564.164062 160.34375 563.203125 160.339844 562.234375 Z M 649.929688 562.234375 C 649.925781 563.203125 649.875 564.164062 649.777344 565.125 C 649.679688 566.085938 649.535156 567.042969 649.34375 567.988281 C 649.152344 568.9375 648.917969 569.871094 648.632812 570.796875 C 648.351562 571.71875 648.023438 572.628906 647.652344 573.519531 C 647.28125 574.410156 646.867188 575.28125 646.410156 576.132812 C 645.953125 576.984375 645.457031 577.8125 644.917969 578.617188 C 644.378906 579.417969 643.804688 580.195312 643.1875 580.941406 C 642.574219 581.6875 641.925781 582.402344 641.242188 583.085938 C 640.558594 583.769531 639.84375 584.417969 639.09375 585.03125 C 638.347656 585.644531 637.570312 586.21875 636.765625 586.753906 C 635.964844 587.292969 635.136719 587.789062 634.28125 588.246094 C 633.429688 588.703125 632.558594 589.117188 631.664062 589.488281 C 630.769531 589.859375 629.863281 590.183594 628.9375 590.46875 C 628.011719 590.75 627.074219 590.988281 626.125 591.175781 C 625.175781 591.367188 624.222656 591.511719 623.261719 591.609375 C 622.296875 591.707031 621.332031 591.757812 620.363281 591.761719 L 593.4375 591.761719 L 593.4375 292.183594 L 620.363281 292.183594 C 621.332031 292.1875 622.296875 292.238281 623.261719 292.335938 C 624.222656 292.429688 625.175781 292.574219 626.125 292.765625 C 627.074219 292.957031 628.011719 293.195312 628.9375 293.476562 C 629.863281 293.757812 630.769531 294.085938 631.664062 294.457031 C 632.558594 294.828125 633.429688 295.242188 634.28125 295.699219 C 635.136719 296.152344 635.964844 296.652344 636.765625 297.1875 C 637.570312 297.726562 638.347656 298.300781 639.09375 298.914062 C 639.84375 299.527344 640.558594 300.175781 641.242188 300.859375 C 641.925781 301.542969 642.574219 302.257812 643.1875 303.003906 C 643.804688 303.75 644.378906 304.523438 644.917969 305.328125 C 645.457031 306.128906 645.953125 306.957031 646.410156 307.808594 C 646.867188 308.660156 647.28125 309.53125 647.652344 310.425781 C 648.023438 311.316406 648.351562 312.222656 648.632812 313.148438 C 648.917969 314.074219 649.152344 315.007812 649.34375 315.953125 C 649.535156 316.902344 649.679688 317.855469 649.777344 318.816406 C 649.875 319.777344 649.925781 320.742188 649.929688 321.707031 Z M 649.929688 562.234375 " fill-opacity="1" fill-rule="nonzero"/></g></svg>