<?xml version="1.0" encoding="utf-8"?>
<!-- Generator: Adobe Illustrator 27.8.1, SVG Export Plug-In . SVG Version: 6.00 Build 0)  -->
<svg version="1.1" xmlns="http://www.w3.org/2000/svg" xmlns:xlink="http://www.w3.org/1999/xlink" x="0px" y="0px"
	 viewBox="0 0 1080 1080" style="enable-background:new 0 0 1080 1080;" xml:space="preserve">
<style type="text/css">
	.st0{clip-path:url(#SVGID_00000106122313203593107010000017491816258046589327_);}
	.st1{clip-path:url(#SVGID_00000044859890227332304620000016762974762660356501_);}
	.st2{clip-path:url(#SVGID_00000103953223890592516850000003482298553552008882_);}
</style>
<g id="Layer_1">
	<g>
		<defs>
			<rect id="SVGID_1_" x="157.3" y="142.7" width="761.3" height="788"/>
		</defs>
		<clipPath id="SVGID_00000129900872481127733380000009587243290444548794_">
			<use xlink:href="#SVGID_1_"  style="overflow:visible;"/>
		</clipPath>
		<g style="clip-path:url(#SVGID_00000129900872481127733380000009587243290444548794_);">
			<g>
				<defs>
					
						<rect id="SVGID_00000057844449431464015430000016367075614464706485_" x="143" y="164.9" transform="matrix(0.9811 -0.1936 0.1936 0.9811 -94.3098 114.7736)" width="794" height="750"/>
				</defs>
				<clipPath id="SVGID_00000047020752453696963560000018198825945450529211_">
					<use xlink:href="#SVGID_00000057844449431464015430000016367075614464706485_"  style="overflow:visible;"/>
				</clipPath>
				<g style="clip-path:url(#SVGID_00000047020752453696963560000018198825945450529211_);">
					<g>
						<defs>
							
								<rect id="SVGID_00000149371493798366086540000002812065018500174783_" x="143" y="164.9" transform="matrix(0.9811 -0.1936 0.1936 0.9811 -94.3098 114.7736)" width="794" height="750"/>
						</defs>
						<clipPath id="SVGID_00000158010900549885146410000018077552034661545871_">
							<use xlink:href="#SVGID_00000149371493798366086540000002812065018500174783_"  style="overflow:visible;"/>
						</clipPath>
						<g style="clip-path:url(#SVGID_00000158010900549885146410000018077552034661545871_);">
							<g>
								<defs>
									
										<rect id="SVGID_00000154396781053701527510000008266235684471827116_" x="143" y="164.9" transform="matrix(0.9811 -0.1936 0.1936 0.9811 -94.3098 114.7736)" width="794" height="750"/>
								</defs>
								<clipPath id="SVGID_00000171695393041211177230000007440459512152090527_">
									<use xlink:href="#SVGID_00000154396781053701527510000008266235684471827116_"  style="overflow:visible;"/>
								</clipPath>
							</g>
						</g>
					</g>
				</g>
				<path style="clip-path:url(#SVGID_00000047020752453696963560000018198825945450529211_);" d="M652,410.4"/>
				<path style="clip-path:url(#SVGID_00000047020752453696963560000018198825945450529211_);" d="M1343.2,266.4"/>
			</g>
		</g>
	</g>
</g>
<g id="Layer_2">
	<path d="M558,547.2c-57.9,11.6-110.9,52.6-139.8,103.7c-30.5,59-51.9,124.9-52.2,191.8c-6.6,49.4,39.6,95.7,89.2,86.2
		c59.9-10.1,103.1-61.1,161.7-75.8c48.8-17.6,98.9-0.3,147.5,7.9c41.7,8.9,93.7-7.9,105.1-53.2c7.1-45.2-24.5-85.7-50.7-119.5
		c-50.4-53.2-104.2-109-174.7-134.6C615.8,542.9,586.3,541.5,558,547.2z"/>
</g>
<g id="Layer_7">
	<g>
		<path d="M823.1,329.2c-68.6,17.9-102.6,96.5-96.6,162.6c0,48.5,37.2,106,91.2,99.2c74.1-15.6,109.1-104.9,97.7-173.5
			C911.2,371.4,873.8,321.8,823.1,329.2z"/>
	</g>
</g>
<g id="Layer_5">
	<path d="M331.9,202.5c-40,8.9-63.2,55.8-62,95.3c1.6,78.5,54.6,165.8,138.4,174.2c7.7,0.2,15.4-1.2,22.7-3.8
		c51.6-19.4,62.5-83.8,50.7-131.6c-14.2-63.4-61.8-130.6-131.6-135.4C343.7,200.7,337.7,201.2,331.9,202.5L331.9,202.5z"/>
</g>
<g id="Layer_3">
	<path d="M218.2,464.6c-29.6,5.6-55.2,29-58.9,60.9c-9.9,85.4,61.9,176.9,150.3,177c36.7-0.9,62.5-34.4,64.9-68.9
		c4.8-73.8-49.6-147.8-120.8-166.8C242.1,463,229.8,462.4,218.2,464.6L218.2,464.6z"/>
</g>
<g id="Layer_6">
	<path d="M605.1,145.5c-1.6,0.3-3.2,0.7-4.8,1.2c-62.4,23.9-84.4,99.1-77.7,160.3c3.3,56.1,41.2,121.5,103.6,121.9
		c9-0.1,17.9-2.6,26-6.6c67.5-38.5,82.9-130.4,58.5-199.1C698.6,178.1,654.3,135.2,605.1,145.5L605.1,145.5z"/>
</g>
</svg>
