<?xml version="1.0" encoding="utf-8"?>
<!-- Generator: Adobe Illustrator 27.8.1, SVG Export Plug-In . SVG Version: 6.00 Build 0)  -->
<svg version="1.1" xmlns="http://www.w3.org/2000/svg" xmlns:xlink="http://www.w3.org/1999/xlink" x="0px" y="0px"
	 viewBox="0 0 1080 1080" style="enable-background:new 0 0 1080 1080;" xml:space="preserve">
<style type="text/css">
	.st0{clip-path:url(#SVGID_00000104699814295865567160000006222672247072723129_);}
	.st1{fill:none;stroke:#000000;stroke-width:65;stroke-miterlimit:10;}
</style>
<g id="Layer_1">
</g>
<g id="Relogio">
	<g>
		<defs>
			<rect id="SVGID_1_" x="220.8" y="109.2" width="716" height="716"/>
		</defs>
		<clipPath id="SVGID_00000137820316422665272950000000331836771846248633_">
			<use xlink:href="#SVGID_1_"  style="overflow:visible;"/>
		</clipPath>
		<g style="clip-path:url(#SVGID_00000137820316422665272950000000331836771846248633_);">
			<path d="M578.8,753.6c-158.1,0-286.4-128.3-286.4-286.4s128.3-286.4,286.4-286.4c158.3,0,286.4,128.3,286.4,286.4
				S737.1,753.6,578.8,753.6z M578.8,109.2c-197.6,0-358,160.2-358,358s160.4,358,358,358c197.8,0,358-160.2,358-358
				S776.6,109.2,578.8,109.2"/>
		</g>
	</g>
</g>
<g id="Maior">
	<path class="st1" d="M574,302.1c0,66.6,0,133.2,0,199.9"/>
</g>
<g id="Ponteiro_Menor">
	<line class="st1" x1="563.2" y1="476.8" x2="647.2" y2="560.8"/>
</g>
</svg>
